<?xml version="1.0" encoding="us-ascii" standalone="no"?><svg xmlns="http://www.w3.org/2000/svg" xmlns:xlink="http://www.w3.org/1999/xlink" contentStyleType="text/css" height="782px" preserveAspectRatio="none" style="width:2195px;height:782px;background:#FFFFFF;" version="1.1" viewBox="0 0 2195 782" width="2195px" zoomAndPan="magnify"><defs/><g><text fill="#000000" font-family="sans-serif" font-size="14" font-weight="bold" lengthAdjust="spacing" textLength="132" x="1024.75" y="22.9951">domain analysis</text><!--class Game--><g id="elem_Game"><rect codeLine="3" fill="#F1F1F1" height="48" id="Game" rx="2.5" ry="2.5" style="stroke:#181818;stroke-width:0.5;" width="74" x="1189" y="44.2969"/><ellipse cx="1204" cy="60.2969" fill="#ADD1B2" rx="11" ry="11" style="stroke:#181818;stroke-width:1.0;"/><path d="M1206.3438,55.9688 C1205.4063,55.5313 1204.8125,55.3906 1203.9375,55.3906 C1201.3125,55.3906 1199.3125,57.4688 1199.3125,60.1875 L1199.3125,61.3125 C1199.3125,63.8906 1201.4219,65.7813 1204.3125,65.7813 C1205.5313,65.7813 1206.6875,65.4844 1207.4375,64.9375 C1208.0156,64.5313 1208.3438,64.0781 1208.3438,63.6875 C1208.3438,63.2344 1207.9531,62.8438 1207.4844,62.8438 C1207.2656,62.8438 1207.0625,62.9219 1206.875,63.1094 C1206.4219,63.5938 1206.4219,63.5938 1206.2344,63.6875 C1205.8125,63.9531 1205.125,64.0781 1204.3594,64.0781 C1202.3125,64.0781 1201.0156,62.9844 1201.0156,61.2813 L1201.0156,60.1875 C1201.0156,58.4063 1202.2656,57.0938 1204,57.0938 C1204.5781,57.0938 1205.1875,57.25 1205.6563,57.5 C1206.1406,57.7813 1206.3125,58 1206.4063,58.4063 C1206.4688,58.8125 1206.5,58.9375 1206.6406,59.0625 C1206.7813,59.2031 1207.0156,59.3125 1207.2344,59.3125 C1207.5,59.3125 1207.7656,59.1719 1207.9375,58.9531 C1208.0469,58.7969 1208.0781,58.6094 1208.0781,58.1875 L1208.0781,56.7656 C1208.0781,56.3281 1208.0625,56.2031 1207.9688,56.0469 C1207.8125,55.7813 1207.5313,55.6406 1207.2344,55.6406 C1206.9375,55.6406 1206.7344,55.7344 1206.5156,56.0469 L1206.3438,55.9688 Z " fill="#000000"/><text fill="#000000" font-family="sans-serif" font-size="14" lengthAdjust="spacing" textLength="42" x="1218" y="65.1436">Game</text><line style="stroke:#181818;stroke-width:0.5;" x1="1190" x2="1262" y1="76.2969" y2="76.2969"/><line style="stroke:#181818;stroke-width:0.5;" x1="1190" x2="1262" y1="84.2969" y2="84.2969"/></g><!--class RoundZero--><g id="elem_RoundZero"><rect codeLine="5" fill="#F1F1F1" height="64.2969" id="RoundZero" rx="2.5" ry="2.5" style="stroke:#181818;stroke-width:0.5;" width="111" x="1597.5" y="309.7969"/><ellipse cx="1612.5" cy="325.7969" fill="#ADD1B2" rx="11" ry="11" style="stroke:#181818;stroke-width:1.0;"/><path d="M1614.8438,321.4688 C1613.9063,321.0313 1613.3125,320.8906 1612.4375,320.8906 C1609.8125,320.8906 1607.8125,322.9688 1607.8125,325.6875 L1607.8125,326.8125 C1607.8125,329.3906 1609.9219,331.2813 1612.8125,331.2813 C1614.0313,331.2813 1615.1875,330.9844 1615.9375,330.4375 C1616.5156,330.0313 1616.8438,329.5781 1616.8438,329.1875 C1616.8438,328.7344 1616.4531,328.3438 1615.9844,328.3438 C1615.7656,328.3438 1615.5625,328.4219 1615.375,328.6094 C1614.9219,329.0938 1614.9219,329.0938 1614.7344,329.1875 C1614.3125,329.4531 1613.625,329.5781 1612.8594,329.5781 C1610.8125,329.5781 1609.5156,328.4844 1609.5156,326.7813 L1609.5156,325.6875 C1609.5156,323.9063 1610.7656,322.5938 1612.5,322.5938 C1613.0781,322.5938 1613.6875,322.75 1614.1563,323 C1614.6406,323.2813 1614.8125,323.5 1614.9063,323.9063 C1614.9688,324.3125 1615,324.4375 1615.1406,324.5625 C1615.2813,324.7031 1615.5156,324.8125 1615.7344,324.8125 C1616,324.8125 1616.2656,324.6719 1616.4375,324.4531 C1616.5469,324.2969 1616.5781,324.1094 1616.5781,323.6875 L1616.5781,322.2656 C1616.5781,321.8281 1616.5625,321.7031 1616.4688,321.5469 C1616.3125,321.2813 1616.0313,321.1406 1615.7344,321.1406 C1615.4375,321.1406 1615.2344,321.2344 1615.0156,321.5469 L1614.8438,321.4688 Z " fill="#000000"/><text fill="#000000" font-family="sans-serif" font-size="14" lengthAdjust="spacing" textLength="79" x="1626.5" y="330.6436">RoundZero</text><line style="stroke:#181818;stroke-width:0.5;" x1="1598.5" x2="1707.5" y1="341.7969" y2="341.7969"/><text fill="#000000" font-family="sans-serif" font-size="14" lengthAdjust="spacing" textLength="62" x="1603.5" y="358.792">1 Leader</text><line style="stroke:#181818;stroke-width:0.5;" x1="1598.5" x2="1707.5" y1="366.0938" y2="366.0938"/></g><!--class RoundOne--><g id="elem_RoundOne"><rect codeLine="9" fill="#F1F1F1" height="64.2969" id="RoundOne" rx="2.5" ry="2.5" style="stroke:#181818;stroke-width:0.5;" width="109" x="1743.5" y="309.7969"/><ellipse cx="1759.85" cy="325.7969" fill="#ADD1B2" rx="11" ry="11" style="stroke:#181818;stroke-width:1.0;"/><path d="M1762.1938,321.4688 C1761.2563,321.0313 1760.6625,320.8906 1759.7875,320.8906 C1757.1625,320.8906 1755.1625,322.9688 1755.1625,325.6875 L1755.1625,326.8125 C1755.1625,329.3906 1757.2719,331.2813 1760.1625,331.2813 C1761.3813,331.2813 1762.5375,330.9844 1763.2875,330.4375 C1763.8656,330.0313 1764.1938,329.5781 1764.1938,329.1875 C1764.1938,328.7344 1763.8031,328.3438 1763.3344,328.3438 C1763.1156,328.3438 1762.9125,328.4219 1762.725,328.6094 C1762.2719,329.0938 1762.2719,329.0938 1762.0844,329.1875 C1761.6625,329.4531 1760.975,329.5781 1760.2094,329.5781 C1758.1625,329.5781 1756.8656,328.4844 1756.8656,326.7813 L1756.8656,325.6875 C1756.8656,323.9063 1758.1156,322.5938 1759.85,322.5938 C1760.4281,322.5938 1761.0375,322.75 1761.5063,323 C1761.9906,323.2813 1762.1625,323.5 1762.2563,323.9063 C1762.3188,324.3125 1762.35,324.4375 1762.4906,324.5625 C1762.6313,324.7031 1762.8656,324.8125 1763.0844,324.8125 C1763.35,324.8125 1763.6156,324.6719 1763.7875,324.4531 C1763.8969,324.2969 1763.9281,324.1094 1763.9281,323.6875 L1763.9281,322.2656 C1763.9281,321.8281 1763.9125,321.7031 1763.8188,321.5469 C1763.6625,321.2813 1763.3813,321.1406 1763.0844,321.1406 C1762.7875,321.1406 1762.5844,321.2344 1762.3656,321.5469 L1762.1938,321.4688 Z " fill="#000000"/><text fill="#000000" font-family="sans-serif" font-size="14" lengthAdjust="spacing" textLength="74" x="1774.15" y="330.6436">RoundOne</text><line style="stroke:#181818;stroke-width:0.5;" x1="1744.5" x2="1851.5" y1="341.7969" y2="341.7969"/><text fill="#000000" font-family="sans-serif" font-size="14" lengthAdjust="spacing" textLength="97" x="1749.5" y="358.792">2 Warrior Pop</text><line style="stroke:#181818;stroke-width:0.5;" x1="1744.5" x2="1851.5" y1="366.0938" y2="366.0938"/></g><!--class RoundTwo--><g id="elem_RoundTwo"><rect codeLine="13" fill="#F1F1F1" height="80.5938" id="RoundTwo" rx="2.5" ry="2.5" style="stroke:#181818;stroke-width:0.5;" width="147" x="1887.5" y="301.2969"/><ellipse cx="1920.95" cy="317.2969" fill="#ADD1B2" rx="11" ry="11" style="stroke:#181818;stroke-width:1.0;"/><path d="M1923.2938,312.9688 C1922.3563,312.5313 1921.7625,312.3906 1920.8875,312.3906 C1918.2625,312.3906 1916.2625,314.4688 1916.2625,317.1875 L1916.2625,318.3125 C1916.2625,320.8906 1918.3719,322.7813 1921.2625,322.7813 C1922.4813,322.7813 1923.6375,322.4844 1924.3875,321.9375 C1924.9656,321.5313 1925.2938,321.0781 1925.2938,320.6875 C1925.2938,320.2344 1924.9031,319.8438 1924.4344,319.8438 C1924.2156,319.8438 1924.0125,319.9219 1923.825,320.1094 C1923.3719,320.5938 1923.3719,320.5938 1923.1844,320.6875 C1922.7625,320.9531 1922.075,321.0781 1921.3094,321.0781 C1919.2625,321.0781 1917.9656,319.9844 1917.9656,318.2813 L1917.9656,317.1875 C1917.9656,315.4063 1919.2156,314.0938 1920.95,314.0938 C1921.5281,314.0938 1922.1375,314.25 1922.6063,314.5 C1923.0906,314.7813 1923.2625,315 1923.3563,315.4063 C1923.4188,315.8125 1923.45,315.9375 1923.5906,316.0625 C1923.7313,316.2031 1923.9656,316.3125 1924.1844,316.3125 C1924.45,316.3125 1924.7156,316.1719 1924.8875,315.9531 C1924.9969,315.7969 1925.0281,315.6094 1925.0281,315.1875 L1925.0281,313.7656 C1925.0281,313.3281 1925.0125,313.2031 1924.9188,313.0469 C1924.7625,312.7813 1924.4813,312.6406 1924.1844,312.6406 C1923.8875,312.6406 1923.6844,312.7344 1923.4656,313.0469 L1923.2938,312.9688 Z " fill="#000000"/><text fill="#000000" font-family="sans-serif" font-size="14" lengthAdjust="spacing" textLength="74" x="1939.05" y="322.1436">RoundTwo</text><line style="stroke:#181818;stroke-width:0.5;" x1="1888.5" x2="2033.5" y1="333.2969" y2="333.2969"/><text fill="#000000" font-family="sans-serif" font-size="14" lengthAdjust="spacing" textLength="98" x="1893.5" y="350.292">1 Warrior Pop</text><text fill="#000000" font-family="sans-serif" font-size="14" lengthAdjust="spacing" textLength="135" x="1893.5" y="366.5889">1 Warrior Common</text><line style="stroke:#181818;stroke-width:0.5;" x1="1888.5" x2="2033.5" y1="373.8906" y2="373.8906"/></g><!--class RoundThree--><g id="elem_RoundThree"><rect codeLine="18" fill="#F1F1F1" height="64.2969" id="RoundThree" rx="2.5" ry="2.5" style="stroke:#181818;stroke-width:0.5;" width="119" x="2069.5" y="309.7969"/><ellipse cx="2084.5" cy="325.7969" fill="#ADD1B2" rx="11" ry="11" style="stroke:#181818;stroke-width:1.0;"/><path d="M2086.8438,321.4688 C2085.9063,321.0313 2085.3125,320.8906 2084.4375,320.8906 C2081.8125,320.8906 2079.8125,322.9688 2079.8125,325.6875 L2079.8125,326.8125 C2079.8125,329.3906 2081.9219,331.2813 2084.8125,331.2813 C2086.0313,331.2813 2087.1875,330.9844 2087.9375,330.4375 C2088.5156,330.0313 2088.8438,329.5781 2088.8438,329.1875 C2088.8438,328.7344 2088.4531,328.3438 2087.9844,328.3438 C2087.7656,328.3438 2087.5625,328.4219 2087.375,328.6094 C2086.9219,329.0938 2086.9219,329.0938 2086.7344,329.1875 C2086.3125,329.4531 2085.625,329.5781 2084.8594,329.5781 C2082.8125,329.5781 2081.5156,328.4844 2081.5156,326.7813 L2081.5156,325.6875 C2081.5156,323.9063 2082.7656,322.5938 2084.5,322.5938 C2085.0781,322.5938 2085.6875,322.75 2086.1563,323 C2086.6406,323.2813 2086.8125,323.5 2086.9063,323.9063 C2086.9688,324.3125 2087,324.4375 2087.1406,324.5625 C2087.2813,324.7031 2087.5156,324.8125 2087.7344,324.8125 C2088,324.8125 2088.2656,324.6719 2088.4375,324.4531 C2088.5469,324.2969 2088.5781,324.1094 2088.5781,323.6875 L2088.5781,322.2656 C2088.5781,321.8281 2088.5625,321.7031 2088.4688,321.5469 C2088.3125,321.2813 2088.0313,321.1406 2087.7344,321.1406 C2087.4375,321.1406 2087.2344,321.2344 2087.0156,321.5469 L2086.8438,321.4688 Z " fill="#000000"/><text fill="#000000" font-family="sans-serif" font-size="14" lengthAdjust="spacing" textLength="87" x="2098.5" y="330.6436">RoundThree</text><line style="stroke:#181818;stroke-width:0.5;" x1="2070.5" x2="2187.5" y1="341.7969" y2="341.7969"/><text fill="#000000" font-family="sans-serif" font-size="14" lengthAdjust="spacing" textLength="49" x="2075.5" y="358.792">1 Spell</text><line style="stroke:#181818;stroke-width:0.5;" x1="2070.5" x2="2187.5" y1="366.0938" y2="366.0938"/></g><!--class RoundFour--><g id="elem_RoundFour"><rect codeLine="22" fill="#F1F1F1" height="64.2969" id="RoundFour" rx="2.5" ry="2.5" style="stroke:#181818;stroke-width:0.5;" width="115" x="971.5" y="309.7969"/><ellipse cx="989.65" cy="325.7969" fill="#ADD1B2" rx="11" ry="11" style="stroke:#181818;stroke-width:1.0;"/><path d="M991.9938,321.4688 C991.0563,321.0313 990.4625,320.8906 989.5875,320.8906 C986.9625,320.8906 984.9625,322.9688 984.9625,325.6875 L984.9625,326.8125 C984.9625,329.3906 987.0719,331.2813 989.9625,331.2813 C991.1813,331.2813 992.3375,330.9844 993.0875,330.4375 C993.6656,330.0313 993.9938,329.5781 993.9938,329.1875 C993.9938,328.7344 993.6031,328.3438 993.1344,328.3438 C992.9156,328.3438 992.7125,328.4219 992.525,328.6094 C992.0719,329.0938 992.0719,329.0938 991.8844,329.1875 C991.4625,329.4531 990.775,329.5781 990.0094,329.5781 C987.9625,329.5781 986.6656,328.4844 986.6656,326.7813 L986.6656,325.6875 C986.6656,323.9063 987.9156,322.5938 989.65,322.5938 C990.2281,322.5938 990.8375,322.75 991.3063,323 C991.7906,323.2813 991.9625,323.5 992.0563,323.9063 C992.1188,324.3125 992.15,324.4375 992.2906,324.5625 C992.4313,324.7031 992.6656,324.8125 992.8844,324.8125 C993.15,324.8125 993.4156,324.6719 993.5875,324.4531 C993.6969,324.2969 993.7281,324.1094 993.7281,323.6875 L993.7281,322.2656 C993.7281,321.8281 993.7125,321.7031 993.6188,321.5469 C993.4625,321.2813 993.1813,321.1406 992.8844,321.1406 C992.5875,321.1406 992.3844,321.2344 992.1656,321.5469 L991.9938,321.4688 Z " fill="#000000"/><text fill="#000000" font-family="sans-serif" font-size="14" lengthAdjust="spacing" textLength="76" x="1004.35" y="330.6436">RoundFour</text><line style="stroke:#181818;stroke-width:0.5;" x1="972.5" x2="1085.5" y1="341.7969" y2="341.7969"/><text fill="#000000" font-family="sans-serif" font-size="14" lengthAdjust="spacing" textLength="103" x="977.5" y="358.792">1 Warrior Rare</text><line style="stroke:#181818;stroke-width:0.5;" x1="972.5" x2="1085.5" y1="366.0938" y2="366.0938"/></g><!--class RoundFive--><g id="elem_RoundFive"><rect codeLine="26" fill="#F1F1F1" height="80.5938" id="RoundFive" rx="2.5" ry="2.5" style="stroke:#181818;stroke-width:0.5;" width="115" x="1121.5" y="301.2969"/><ellipse cx="1140.55" cy="317.2969" fill="#ADD1B2" rx="11" ry="11" style="stroke:#181818;stroke-width:1.0;"/><path d="M1142.8938,312.9688 C1141.9563,312.5313 1141.3625,312.3906 1140.4875,312.3906 C1137.8625,312.3906 1135.8625,314.4688 1135.8625,317.1875 L1135.8625,318.3125 C1135.8625,320.8906 1137.9719,322.7813 1140.8625,322.7813 C1142.0813,322.7813 1143.2375,322.4844 1143.9875,321.9375 C1144.5656,321.5313 1144.8938,321.0781 1144.8938,320.6875 C1144.8938,320.2344 1144.5031,319.8438 1144.0344,319.8438 C1143.8156,319.8438 1143.6125,319.9219 1143.425,320.1094 C1142.9719,320.5938 1142.9719,320.5938 1142.7844,320.6875 C1142.3625,320.9531 1141.675,321.0781 1140.9094,321.0781 C1138.8625,321.0781 1137.5656,319.9844 1137.5656,318.2813 L1137.5656,317.1875 C1137.5656,315.4063 1138.8156,314.0938 1140.55,314.0938 C1141.1281,314.0938 1141.7375,314.25 1142.2063,314.5 C1142.6906,314.7813 1142.8625,315 1142.9563,315.4063 C1143.0188,315.8125 1143.05,315.9375 1143.1906,316.0625 C1143.3313,316.2031 1143.5656,316.3125 1143.7844,316.3125 C1144.05,316.3125 1144.3156,316.1719 1144.4875,315.9531 C1144.5969,315.7969 1144.6281,315.6094 1144.6281,315.1875 L1144.6281,313.7656 C1144.6281,313.3281 1144.6125,313.2031 1144.5188,313.0469 C1144.3625,312.7813 1144.0813,312.6406 1143.7844,312.6406 C1143.4875,312.6406 1143.2844,312.7344 1143.0656,313.0469 L1142.8938,312.9688 Z " fill="#000000"/><text fill="#000000" font-family="sans-serif" font-size="14" lengthAdjust="spacing" textLength="74" x="1155.45" y="322.1436">RoundFive</text><line style="stroke:#181818;stroke-width:0.5;" x1="1122.5" x2="1235.5" y1="333.2969" y2="333.2969"/><text fill="#000000" font-family="sans-serif" font-size="14" lengthAdjust="spacing" textLength="49" x="1127.5" y="350.292">1 Spell</text><text fill="#000000" font-family="sans-serif" font-size="14" lengthAdjust="spacing" textLength="103" x="1127.5" y="366.5889">1 Warrior Rare</text><line style="stroke:#181818;stroke-width:0.5;" x1="1122.5" x2="1235.5" y1="373.8906" y2="373.8906"/></g><!--class RoundSix--><g id="elem_RoundSix"><rect codeLine="31" fill="#F1F1F1" height="64.2969" id="RoundSix" rx="2.5" ry="2.5" style="stroke:#181818;stroke-width:0.5;" width="113" x="1271.5" y="309.7969"/><ellipse cx="1293.25" cy="325.7969" fill="#ADD1B2" rx="11" ry="11" style="stroke:#181818;stroke-width:1.0;"/><path d="M1295.5938,321.4688 C1294.6563,321.0313 1294.0625,320.8906 1293.1875,320.8906 C1290.5625,320.8906 1288.5625,322.9688 1288.5625,325.6875 L1288.5625,326.8125 C1288.5625,329.3906 1290.6719,331.2813 1293.5625,331.2813 C1294.7813,331.2813 1295.9375,330.9844 1296.6875,330.4375 C1297.2656,330.0313 1297.5938,329.5781 1297.5938,329.1875 C1297.5938,328.7344 1297.2031,328.3438 1296.7344,328.3438 C1296.5156,328.3438 1296.3125,328.4219 1296.125,328.6094 C1295.6719,329.0938 1295.6719,329.0938 1295.4844,329.1875 C1295.0625,329.4531 1294.375,329.5781 1293.6094,329.5781 C1291.5625,329.5781 1290.2656,328.4844 1290.2656,326.7813 L1290.2656,325.6875 C1290.2656,323.9063 1291.5156,322.5938 1293.25,322.5938 C1293.8281,322.5938 1294.4375,322.75 1294.9063,323 C1295.3906,323.2813 1295.5625,323.5 1295.6563,323.9063 C1295.7188,324.3125 1295.75,324.4375 1295.8906,324.5625 C1296.0313,324.7031 1296.2656,324.8125 1296.4844,324.8125 C1296.75,324.8125 1297.0156,324.6719 1297.1875,324.4531 C1297.2969,324.2969 1297.3281,324.1094 1297.3281,323.6875 L1297.3281,322.2656 C1297.3281,321.8281 1297.3125,321.7031 1297.2188,321.5469 C1297.0625,321.2813 1296.7813,321.1406 1296.4844,321.1406 C1296.1875,321.1406 1295.9844,321.2344 1295.7656,321.5469 L1295.5938,321.4688 Z " fill="#000000"/><text fill="#000000" font-family="sans-serif" font-size="14" lengthAdjust="spacing" textLength="66" x="1308.75" y="330.6436">RoundSix</text><line style="stroke:#181818;stroke-width:0.5;" x1="1272.5" x2="1383.5" y1="341.7969" y2="341.7969"/><text fill="#000000" font-family="sans-serif" font-size="14" lengthAdjust="spacing" textLength="101" x="1277.5" y="358.792">1 Warrior Epic</text><line style="stroke:#181818;stroke-width:0.5;" x1="1272.5" x2="1383.5" y1="366.0938" y2="366.0938"/></g><!--class RoundUnknown--><g id="elem_RoundUnknown"><rect codeLine="35" fill="#F1F1F1" height="64.2969" id="RoundUnknown" rx="2.5" ry="2.5" style="stroke:#181818;stroke-width:0.5;" width="142" x="1420" y="309.7969"/><ellipse cx="1435" cy="325.7969" fill="#ADD1B2" rx="11" ry="11" style="stroke:#181818;stroke-width:1.0;"/><path d="M1437.3438,321.4688 C1436.4063,321.0313 1435.8125,320.8906 1434.9375,320.8906 C1432.3125,320.8906 1430.3125,322.9688 1430.3125,325.6875 L1430.3125,326.8125 C1430.3125,329.3906 1432.4219,331.2813 1435.3125,331.2813 C1436.5313,331.2813 1437.6875,330.9844 1438.4375,330.4375 C1439.0156,330.0313 1439.3438,329.5781 1439.3438,329.1875 C1439.3438,328.7344 1438.9531,328.3438 1438.4844,328.3438 C1438.2656,328.3438 1438.0625,328.4219 1437.875,328.6094 C1437.4219,329.0938 1437.4219,329.0938 1437.2344,329.1875 C1436.8125,329.4531 1436.125,329.5781 1435.3594,329.5781 C1433.3125,329.5781 1432.0156,328.4844 1432.0156,326.7813 L1432.0156,325.6875 C1432.0156,323.9063 1433.2656,322.5938 1435,322.5938 C1435.5781,322.5938 1436.1875,322.75 1436.6563,323 C1437.1406,323.2813 1437.3125,323.5 1437.4063,323.9063 C1437.4688,324.3125 1437.5,324.4375 1437.6406,324.5625 C1437.7813,324.7031 1438.0156,324.8125 1438.2344,324.8125 C1438.5,324.8125 1438.7656,324.6719 1438.9375,324.4531 C1439.0469,324.2969 1439.0781,324.1094 1439.0781,323.6875 L1439.0781,322.2656 C1439.0781,321.8281 1439.0625,321.7031 1438.9688,321.5469 C1438.8125,321.2813 1438.5313,321.1406 1438.2344,321.1406 C1437.9375,321.1406 1437.7344,321.2344 1437.5156,321.5469 L1437.3438,321.4688 Z " fill="#000000"/><text fill="#000000" font-family="sans-serif" font-size="14" lengthAdjust="spacing" textLength="110" x="1449" y="330.6436">RoundUnknown</text><line style="stroke:#181818;stroke-width:0.5;" x1="1421" x2="1561" y1="341.7969" y2="341.7969"/><text fill="#000000" font-family="sans-serif" font-size="14" lengthAdjust="spacing" textLength="49" x="1426" y="358.792">1 Spell</text><line style="stroke:#181818;stroke-width:0.5;" x1="1421" x2="1561" y1="366.0938" y2="366.0938"/></g><!--class Player--><g id="elem_Player"><rect codeLine="53" fill="#F1F1F1" height="80.5938" id="Player" rx="2.5" ry="2.5" style="stroke:#181818;stroke-width:0.5;" width="177" x="1137.5" y="152.2969"/><ellipse cx="1199.75" cy="168.2969" fill="#ADD1B2" rx="11" ry="11" style="stroke:#181818;stroke-width:1.0;"/><path d="M1202.0938,163.9688 C1201.1563,163.5313 1200.5625,163.3906 1199.6875,163.3906 C1197.0625,163.3906 1195.0625,165.4688 1195.0625,168.1875 L1195.0625,169.3125 C1195.0625,171.8906 1197.1719,173.7813 1200.0625,173.7813 C1201.2813,173.7813 1202.4375,173.4844 1203.1875,172.9375 C1203.7656,172.5313 1204.0938,172.0781 1204.0938,171.6875 C1204.0938,171.2344 1203.7031,170.8438 1203.2344,170.8438 C1203.0156,170.8438 1202.8125,170.9219 1202.625,171.1094 C1202.1719,171.5938 1202.1719,171.5938 1201.9844,171.6875 C1201.5625,171.9531 1200.875,172.0781 1200.1094,172.0781 C1198.0625,172.0781 1196.7656,170.9844 1196.7656,169.2813 L1196.7656,168.1875 C1196.7656,166.4063 1198.0156,165.0938 1199.75,165.0938 C1200.3281,165.0938 1200.9375,165.25 1201.4063,165.5 C1201.8906,165.7813 1202.0625,166 1202.1563,166.4063 C1202.2188,166.8125 1202.25,166.9375 1202.3906,167.0625 C1202.5313,167.2031 1202.7656,167.3125 1202.9844,167.3125 C1203.25,167.3125 1203.5156,167.1719 1203.6875,166.9531 C1203.7969,166.7969 1203.8281,166.6094 1203.8281,166.1875 L1203.8281,164.7656 C1203.8281,164.3281 1203.8125,164.2031 1203.7188,164.0469 C1203.5625,163.7813 1203.2813,163.6406 1202.9844,163.6406 C1202.6875,163.6406 1202.4844,163.7344 1202.2656,164.0469 L1202.0938,163.9688 Z " fill="#000000"/><text fill="#000000" font-family="sans-serif" font-size="14" lengthAdjust="spacing" textLength="44" x="1220.25" y="173.1436">Player</text><line style="stroke:#181818;stroke-width:0.5;" x1="1138.5" x2="1313.5" y1="184.2969" y2="184.2969"/><text fill="#000000" font-family="sans-serif" font-size="14" lengthAdjust="spacing" textLength="135" x="1143.5" y="201.292">Name "Mandatory"</text><text fill="#000000" font-family="sans-serif" font-size="14" lengthAdjust="spacing" textLength="165" x="1143.5" y="217.5889">BirthDate "Mandatory"</text><line style="stroke:#181818;stroke-width:0.5;" x1="1138.5" x2="1313.5" y1="224.8906" y2="224.8906"/></g><!--class Deck--><g id="elem_Deck"><rect codeLine="60" fill="#F1F1F1" height="48" id="Deck" rx="2.5" ry="2.5" style="stroke:#181818;stroke-width:0.5;" width="69" x="829.5" y="168.7969"/><ellipse cx="844.5" cy="184.7969" fill="#ADD1B2" rx="11" ry="11" style="stroke:#181818;stroke-width:1.0;"/><path d="M846.8438,180.4688 C845.9063,180.0313 845.3125,179.8906 844.4375,179.8906 C841.8125,179.8906 839.8125,181.9688 839.8125,184.6875 L839.8125,185.8125 C839.8125,188.3906 841.9219,190.2813 844.8125,190.2813 C846.0313,190.2813 847.1875,189.9844 847.9375,189.4375 C848.5156,189.0313 848.8438,188.5781 848.8438,188.1875 C848.8438,187.7344 848.4531,187.3438 847.9844,187.3438 C847.7656,187.3438 847.5625,187.4219 847.375,187.6094 C846.9219,188.0938 846.9219,188.0938 846.7344,188.1875 C846.3125,188.4531 845.625,188.5781 844.8594,188.5781 C842.8125,188.5781 841.5156,187.4844 841.5156,185.7813 L841.5156,184.6875 C841.5156,182.9063 842.7656,181.5938 844.5,181.5938 C845.0781,181.5938 845.6875,181.75 846.1563,182 C846.6406,182.2813 846.8125,182.5 846.9063,182.9063 C846.9688,183.3125 847,183.4375 847.1406,183.5625 C847.2813,183.7031 847.5156,183.8125 847.7344,183.8125 C848,183.8125 848.2656,183.6719 848.4375,183.4531 C848.5469,183.2969 848.5781,183.1094 848.5781,182.6875 L848.5781,181.2656 C848.5781,180.8281 848.5625,180.7031 848.4688,180.5469 C848.3125,180.2813 848.0313,180.1406 847.7344,180.1406 C847.4375,180.1406 847.2344,180.2344 847.0156,180.5469 L846.8438,180.4688 Z " fill="#000000"/><text fill="#000000" font-family="sans-serif" font-size="14" lengthAdjust="spacing" textLength="37" x="858.5" y="189.6436">Deck</text><line style="stroke:#181818;stroke-width:0.5;" x1="830.5" x2="897.5" y1="200.7969" y2="200.7969"/><line style="stroke:#181818;stroke-width:0.5;" x1="830.5" x2="897.5" y1="208.7969" y2="208.7969"/></g><!--class Round--><g id="elem_Round"><rect fill="#F1F1F1" height="48" id="Round" rx="2.5" ry="2.5" style="stroke:#181818;stroke-width:0.5;" width="77" x="1452.5" y="168.7969"/><ellipse cx="1467.5" cy="184.7969" fill="#ADD1B2" rx="11" ry="11" style="stroke:#181818;stroke-width:1.0;"/><path d="M1469.8438,180.4688 C1468.9063,180.0313 1468.3125,179.8906 1467.4375,179.8906 C1464.8125,179.8906 1462.8125,181.9688 1462.8125,184.6875 L1462.8125,185.8125 C1462.8125,188.3906 1464.9219,190.2813 1467.8125,190.2813 C1469.0313,190.2813 1470.1875,189.9844 1470.9375,189.4375 C1471.5156,189.0313 1471.8438,188.5781 1471.8438,188.1875 C1471.8438,187.7344 1471.4531,187.3438 1470.9844,187.3438 C1470.7656,187.3438 1470.5625,187.4219 1470.375,187.6094 C1469.9219,188.0938 1469.9219,188.0938 1469.7344,188.1875 C1469.3125,188.4531 1468.625,188.5781 1467.8594,188.5781 C1465.8125,188.5781 1464.5156,187.4844 1464.5156,185.7813 L1464.5156,184.6875 C1464.5156,182.9063 1465.7656,181.5938 1467.5,181.5938 C1468.0781,181.5938 1468.6875,181.75 1469.1563,182 C1469.6406,182.2813 1469.8125,182.5 1469.9063,182.9063 C1469.9688,183.3125 1470,183.4375 1470.1406,183.5625 C1470.2813,183.7031 1470.5156,183.8125 1470.7344,183.8125 C1471,183.8125 1471.2656,183.6719 1471.4375,183.4531 C1471.5469,183.2969 1471.5781,183.1094 1471.5781,182.6875 L1471.5781,181.2656 C1471.5781,180.8281 1471.5625,180.7031 1471.4688,180.5469 C1471.3125,180.2813 1471.0313,180.1406 1470.7344,180.1406 C1470.4375,180.1406 1470.2344,180.2344 1470.0156,180.5469 L1469.8438,180.4688 Z " fill="#000000"/><text fill="#000000" font-family="sans-serif" font-size="14" lengthAdjust="spacing" textLength="45" x="1481.5" y="189.6436">Round</text><line style="stroke:#181818;stroke-width:0.5;" x1="1453.5" x2="1528.5" y1="200.7969" y2="200.7969"/><line style="stroke:#181818;stroke-width:0.5;" x1="1453.5" x2="1528.5" y1="208.7969" y2="208.7969"/></g><!--class Card--><g id="elem_Card"><rect codeLine="66" fill="#F1F1F1" height="80.5938" id="Card" rx="2.5" ry="2.5" style="stroke:#181818;stroke-width:0.5;" width="190" x="502" y="152.2969"/><ellipse cx="576.25" cy="168.2969" fill="#ADD1B2" rx="11" ry="11" style="stroke:#181818;stroke-width:1.0;"/><path d="M578.5938,163.9688 C577.6563,163.5313 577.0625,163.3906 576.1875,163.3906 C573.5625,163.3906 571.5625,165.4688 571.5625,168.1875 L571.5625,169.3125 C571.5625,171.8906 573.6719,173.7813 576.5625,173.7813 C577.7813,173.7813 578.9375,173.4844 579.6875,172.9375 C580.2656,172.5313 580.5938,172.0781 580.5938,171.6875 C580.5938,171.2344 580.2031,170.8438 579.7344,170.8438 C579.5156,170.8438 579.3125,170.9219 579.125,171.1094 C578.6719,171.5938 578.6719,171.5938 578.4844,171.6875 C578.0625,171.9531 577.375,172.0781 576.6094,172.0781 C574.5625,172.0781 573.2656,170.9844 573.2656,169.2813 L573.2656,168.1875 C573.2656,166.4063 574.5156,165.0938 576.25,165.0938 C576.8281,165.0938 577.4375,165.25 577.9063,165.5 C578.3906,165.7813 578.5625,166 578.6563,166.4063 C578.7188,166.8125 578.75,166.9375 578.8906,167.0625 C579.0313,167.2031 579.2656,167.3125 579.4844,167.3125 C579.75,167.3125 580.0156,167.1719 580.1875,166.9531 C580.2969,166.7969 580.3281,166.6094 580.3281,166.1875 L580.3281,164.7656 C580.3281,164.3281 580.3125,164.2031 580.2188,164.0469 C580.0625,163.7813 579.7813,163.6406 579.4844,163.6406 C579.1875,163.6406 578.9844,163.7344 578.7656,164.0469 L578.5938,163.9688 Z " fill="#000000"/><text fill="#000000" font-family="sans-serif" font-size="14" lengthAdjust="spacing" textLength="33" x="596.75" y="173.1436">Card</text><line style="stroke:#181818;stroke-width:0.5;" x1="503" x2="691" y1="184.2969" y2="184.2969"/><text fill="#000000" font-family="sans-serif" font-size="14" lengthAdjust="spacing" textLength="135" x="508" y="201.292">Name "Mandatory"</text><text fill="#000000" font-family="sans-serif" font-size="14" lengthAdjust="spacing" textLength="178" x="508" y="217.5889">Description "Mandatory"</text><line style="stroke:#181818;stroke-width:0.5;" x1="503" x2="691" y1="224.8906" y2="224.8906"/></g><!--class LeaderCard--><g id="elem_LeaderCard"><rect codeLine="71" fill="#F1F1F1" height="64.2969" id="LeaderCard" rx="2.5" ry="2.5" style="stroke:#181818;stroke-width:0.5;" width="153" x="81.5" y="309.7969"/><ellipse cx="114.05" cy="325.7969" fill="#ADD1B2" rx="11" ry="11" style="stroke:#181818;stroke-width:1.0;"/><path d="M116.3938,321.4688 C115.4563,321.0313 114.8625,320.8906 113.9875,320.8906 C111.3625,320.8906 109.3625,322.9688 109.3625,325.6875 L109.3625,326.8125 C109.3625,329.3906 111.4719,331.2813 114.3625,331.2813 C115.5813,331.2813 116.7375,330.9844 117.4875,330.4375 C118.0656,330.0313 118.3938,329.5781 118.3938,329.1875 C118.3938,328.7344 118.0031,328.3438 117.5344,328.3438 C117.3156,328.3438 117.1125,328.4219 116.925,328.6094 C116.4719,329.0938 116.4719,329.0938 116.2844,329.1875 C115.8625,329.4531 115.175,329.5781 114.4094,329.5781 C112.3625,329.5781 111.0656,328.4844 111.0656,326.7813 L111.0656,325.6875 C111.0656,323.9063 112.3156,322.5938 114.05,322.5938 C114.6281,322.5938 115.2375,322.75 115.7063,323 C116.1906,323.2813 116.3625,323.5 116.4563,323.9063 C116.5188,324.3125 116.55,324.4375 116.6906,324.5625 C116.8313,324.7031 117.0656,324.8125 117.2844,324.8125 C117.55,324.8125 117.8156,324.6719 117.9875,324.4531 C118.0969,324.2969 118.1281,324.1094 118.1281,323.6875 L118.1281,322.2656 C118.1281,321.8281 118.1125,321.7031 118.0188,321.5469 C117.8625,321.2813 117.5813,321.1406 117.2844,321.1406 C116.9875,321.1406 116.7844,321.2344 116.5656,321.5469 L116.3938,321.4688 Z " fill="#000000"/><text fill="#000000" font-family="sans-serif" font-size="14" lengthAdjust="spacing" textLength="82" x="131.95" y="330.6436">LeaderCard</text><line style="stroke:#181818;stroke-width:0.5;" x1="82.5" x2="233.5" y1="341.7969" y2="341.7969"/><text fill="#000000" font-family="sans-serif" font-size="14" lengthAdjust="spacing" textLength="141" x="87.5" y="358.792">Health "Mandatory"</text><line style="stroke:#181818;stroke-width:0.5;" x1="82.5" x2="233.5" y1="366.0938" y2="366.0938"/></g><!--class SpellCard--><g id="elem_SpellCard"><rect codeLine="75" fill="#F1F1F1" height="64.2969" id="SpellCard" rx="2.5" ry="2.5" style="stroke:#181818;stroke-width:0.5;" width="207" x="729.5" y="309.7969"/><ellipse cx="794.25" cy="325.7969" fill="#ADD1B2" rx="11" ry="11" style="stroke:#181818;stroke-width:1.0;"/><path d="M796.5938,321.4688 C795.6563,321.0313 795.0625,320.8906 794.1875,320.8906 C791.5625,320.8906 789.5625,322.9688 789.5625,325.6875 L789.5625,326.8125 C789.5625,329.3906 791.6719,331.2813 794.5625,331.2813 C795.7813,331.2813 796.9375,330.9844 797.6875,330.4375 C798.2656,330.0313 798.5938,329.5781 798.5938,329.1875 C798.5938,328.7344 798.2031,328.3438 797.7344,328.3438 C797.5156,328.3438 797.3125,328.4219 797.125,328.6094 C796.6719,329.0938 796.6719,329.0938 796.4844,329.1875 C796.0625,329.4531 795.375,329.5781 794.6094,329.5781 C792.5625,329.5781 791.2656,328.4844 791.2656,326.7813 L791.2656,325.6875 C791.2656,323.9063 792.5156,322.5938 794.25,322.5938 C794.8281,322.5938 795.4375,322.75 795.9063,323 C796.3906,323.2813 796.5625,323.5 796.6563,323.9063 C796.7188,324.3125 796.75,324.4375 796.8906,324.5625 C797.0313,324.7031 797.2656,324.8125 797.4844,324.8125 C797.75,324.8125 798.0156,324.6719 798.1875,324.4531 C798.2969,324.2969 798.3281,324.1094 798.3281,323.6875 L798.3281,322.2656 C798.3281,321.8281 798.3125,321.7031 798.2188,321.5469 C798.0625,321.2813 797.7813,321.1406 797.4844,321.1406 C797.1875,321.1406 796.9844,321.2344 796.7656,321.5469 L796.5938,321.4688 Z " fill="#000000"/><text fill="#000000" font-family="sans-serif" font-size="14" lengthAdjust="spacing" textLength="69" x="814.75" y="330.6436">SpellCard</text><line style="stroke:#181818;stroke-width:0.5;" x1="730.5" x2="935.5" y1="341.7969" y2="341.7969"/><text fill="#000000" font-family="sans-serif" font-size="14" lengthAdjust="spacing" textLength="195" x="735.5" y="358.792">Special ability "Mandatory"</text><line style="stroke:#181818;stroke-width:0.5;" x1="730.5" x2="935.5" y1="366.0938" y2="366.0938"/></g><!--class EquipmentCard--><g id="elem_EquipmentCard"><rect codeLine="79" fill="#F1F1F1" height="96.8906" id="EquipmentCard" rx="2.5" ry="2.5" style="stroke:#181818;stroke-width:0.5;" width="195" x="269.5" y="293.2969"/><ellipse cx="307.45" cy="309.2969" fill="#ADD1B2" rx="11" ry="11" style="stroke:#181818;stroke-width:1.0;"/><path d="M309.7938,304.9688 C308.8563,304.5313 308.2625,304.3906 307.3875,304.3906 C304.7625,304.3906 302.7625,306.4688 302.7625,309.1875 L302.7625,310.3125 C302.7625,312.8906 304.8719,314.7813 307.7625,314.7813 C308.9813,314.7813 310.1375,314.4844 310.8875,313.9375 C311.4656,313.5313 311.7938,313.0781 311.7938,312.6875 C311.7938,312.2344 311.4031,311.8438 310.9344,311.8438 C310.7156,311.8438 310.5125,311.9219 310.325,312.1094 C309.8719,312.5938 309.8719,312.5938 309.6844,312.6875 C309.2625,312.9531 308.575,313.0781 307.8094,313.0781 C305.7625,313.0781 304.4656,311.9844 304.4656,310.2813 L304.4656,309.1875 C304.4656,307.4063 305.7156,306.0938 307.45,306.0938 C308.0281,306.0938 308.6375,306.25 309.1063,306.5 C309.5906,306.7813 309.7625,307 309.8563,307.4063 C309.9188,307.8125 309.95,307.9375 310.0906,308.0625 C310.2313,308.2031 310.4656,308.3125 310.6844,308.3125 C310.95,308.3125 311.2156,308.1719 311.3875,307.9531 C311.4969,307.7969 311.5281,307.6094 311.5281,307.1875 L311.5281,305.7656 C311.5281,305.3281 311.5125,305.2031 311.4188,305.0469 C311.2625,304.7813 310.9813,304.6406 310.6844,304.6406 C310.3875,304.6406 310.1844,304.7344 309.9656,305.0469 L309.7938,304.9688 Z " fill="#000000"/><text fill="#000000" font-family="sans-serif" font-size="14" lengthAdjust="spacing" textLength="112" x="326.55" y="314.1436">EquipmentCard</text><line style="stroke:#181818;stroke-width:0.5;" x1="270.5" x2="463.5" y1="325.2969" y2="325.2969"/><text fill="#000000" font-family="sans-serif" font-size="14" lengthAdjust="spacing" textLength="181" x="275.5" y="342.292">Special ability "Optional"</text><text fill="#000000" font-family="sans-serif" font-size="14" lengthAdjust="spacing" textLength="141" x="275.5" y="358.5889">Health "Mandatory"</text><text fill="#000000" font-family="sans-serif" font-size="14" lengthAdjust="spacing" textLength="183" x="275.5" y="374.8857">HealthPerTurn "Optional"</text><line style="stroke:#181818;stroke-width:0.5;" x1="270.5" x2="463.5" y1="382.1875" y2="382.1875"/></g><!--class WarriorCard--><g id="elem_WarriorCard"><rect codeLine="85" fill="#F1F1F1" height="96.8906" id="WarriorCard" rx="2.5" ry="2.5" style="stroke:#181818;stroke-width:0.5;" width="195" x="499.5" y="293.2969"/><ellipse cx="549.75" cy="309.2969" fill="#ADD1B2" rx="11" ry="11" style="stroke:#181818;stroke-width:1.0;"/><path d="M552.0938,304.9688 C551.1563,304.5313 550.5625,304.3906 549.6875,304.3906 C547.0625,304.3906 545.0625,306.4688 545.0625,309.1875 L545.0625,310.3125 C545.0625,312.8906 547.1719,314.7813 550.0625,314.7813 C551.2813,314.7813 552.4375,314.4844 553.1875,313.9375 C553.7656,313.5313 554.0938,313.0781 554.0938,312.6875 C554.0938,312.2344 553.7031,311.8438 553.2344,311.8438 C553.0156,311.8438 552.8125,311.9219 552.625,312.1094 C552.1719,312.5938 552.1719,312.5938 551.9844,312.6875 C551.5625,312.9531 550.875,313.0781 550.1094,313.0781 C548.0625,313.0781 546.7656,311.9844 546.7656,310.2813 L546.7656,309.1875 C546.7656,307.4063 548.0156,306.0938 549.75,306.0938 C550.3281,306.0938 550.9375,306.25 551.4063,306.5 C551.8906,306.7813 552.0625,307 552.1563,307.4063 C552.2188,307.8125 552.25,307.9375 552.3906,308.0625 C552.5313,308.2031 552.7656,308.3125 552.9844,308.3125 C553.25,308.3125 553.5156,308.1719 553.6875,307.9531 C553.7969,307.7969 553.8281,307.6094 553.8281,307.1875 L553.8281,305.7656 C553.8281,305.3281 553.8125,305.2031 553.7188,305.0469 C553.5625,304.7813 553.2813,304.6406 552.9844,304.6406 C552.6875,304.6406 552.4844,304.7344 552.2656,305.0469 L552.0938,304.9688 Z " fill="#000000"/><text fill="#000000" font-family="sans-serif" font-size="14" lengthAdjust="spacing" textLength="86" x="570.25" y="314.1436">WarriorCard</text><line style="stroke:#181818;stroke-width:0.5;" x1="500.5" x2="693.5" y1="325.2969" y2="325.2969"/><text fill="#000000" font-family="sans-serif" font-size="14" lengthAdjust="spacing" textLength="181" x="505.5" y="342.292">Special ability "Optional"</text><text fill="#000000" font-family="sans-serif" font-size="14" lengthAdjust="spacing" textLength="141" x="505.5" y="358.5889">Health "Mandatory"</text><text fill="#000000" font-family="sans-serif" font-size="14" lengthAdjust="spacing" textLength="183" x="505.5" y="374.8857">HealthPerTurn "Optional"</text><line style="stroke:#181818;stroke-width:0.5;" x1="500.5" x2="693.5" y1="382.1875" y2="382.1875"/></g><!--class Damage--><g id="elem_Damage"><rect fill="#F1F1F1" height="48" id="Damage" rx="2.5" ry="2.5" style="stroke:#181818;stroke-width:0.5;" width="91" x="202.5" y="511.2969"/><ellipse cx="217.5" cy="527.2969" fill="#ADD1B2" rx="11" ry="11" style="stroke:#181818;stroke-width:1.0;"/><path d="M219.8438,522.9688 C218.9063,522.5313 218.3125,522.3906 217.4375,522.3906 C214.8125,522.3906 212.8125,524.4688 212.8125,527.1875 L212.8125,528.3125 C212.8125,530.8906 214.9219,532.7813 217.8125,532.7813 C219.0313,532.7813 220.1875,532.4844 220.9375,531.9375 C221.5156,531.5313 221.8438,531.0781 221.8438,530.6875 C221.8438,530.2344 221.4531,529.8438 220.9844,529.8438 C220.7656,529.8438 220.5625,529.9219 220.375,530.1094 C219.9219,530.5938 219.9219,530.5938 219.7344,530.6875 C219.3125,530.9531 218.625,531.0781 217.8594,531.0781 C215.8125,531.0781 214.5156,529.9844 214.5156,528.2813 L214.5156,527.1875 C214.5156,525.4063 215.7656,524.0938 217.5,524.0938 C218.0781,524.0938 218.6875,524.25 219.1563,524.5 C219.6406,524.7813 219.8125,525 219.9063,525.4063 C219.9688,525.8125 220,525.9375 220.1406,526.0625 C220.2813,526.2031 220.5156,526.3125 220.7344,526.3125 C221,526.3125 221.2656,526.1719 221.4375,525.9531 C221.5469,525.7969 221.5781,525.6094 221.5781,525.1875 L221.5781,523.7656 C221.5781,523.3281 221.5625,523.2031 221.4688,523.0469 C221.3125,522.7813 221.0313,522.6406 220.7344,522.6406 C220.4375,522.6406 220.2344,522.7344 220.0156,523.0469 L219.8438,522.9688 Z " fill="#000000"/><text fill="#000000" font-family="sans-serif" font-size="14" lengthAdjust="spacing" textLength="59" x="231.5" y="532.1436">Damage</text><line style="stroke:#181818;stroke-width:0.5;" x1="203.5" x2="292.5" y1="543.2969" y2="543.2969"/><line style="stroke:#181818;stroke-width:0.5;" x1="203.5" x2="292.5" y1="551.2969" y2="551.2969"/></g><!--class Armor--><g id="elem_Armor"><rect fill="#F1F1F1" height="48" id="Armor" rx="2.5" ry="2.5" style="stroke:#181818;stroke-width:0.5;" width="77" x="440.5" y="511.2969"/><ellipse cx="455.5" cy="527.2969" fill="#ADD1B2" rx="11" ry="11" style="stroke:#181818;stroke-width:1.0;"/><path d="M457.8438,522.9688 C456.9063,522.5313 456.3125,522.3906 455.4375,522.3906 C452.8125,522.3906 450.8125,524.4688 450.8125,527.1875 L450.8125,528.3125 C450.8125,530.8906 452.9219,532.7813 455.8125,532.7813 C457.0313,532.7813 458.1875,532.4844 458.9375,531.9375 C459.5156,531.5313 459.8438,531.0781 459.8438,530.6875 C459.8438,530.2344 459.4531,529.8438 458.9844,529.8438 C458.7656,529.8438 458.5625,529.9219 458.375,530.1094 C457.9219,530.5938 457.9219,530.5938 457.7344,530.6875 C457.3125,530.9531 456.625,531.0781 455.8594,531.0781 C453.8125,531.0781 452.5156,529.9844 452.5156,528.2813 L452.5156,527.1875 C452.5156,525.4063 453.7656,524.0938 455.5,524.0938 C456.0781,524.0938 456.6875,524.25 457.1563,524.5 C457.6406,524.7813 457.8125,525 457.9063,525.4063 C457.9688,525.8125 458,525.9375 458.1406,526.0625 C458.2813,526.2031 458.5156,526.3125 458.7344,526.3125 C459,526.3125 459.2656,526.1719 459.4375,525.9531 C459.5469,525.7969 459.5781,525.6094 459.5781,525.1875 L459.5781,523.7656 C459.5781,523.3281 459.5625,523.2031 459.4688,523.0469 C459.3125,522.7813 459.0313,522.6406 458.7344,522.6406 C458.4375,522.6406 458.2344,522.7344 458.0156,523.0469 L457.8438,522.9688 Z " fill="#000000"/><text fill="#000000" font-family="sans-serif" font-size="14" lengthAdjust="spacing" textLength="45" x="469.5" y="532.1436">Armor</text><line style="stroke:#181818;stroke-width:0.5;" x1="441.5" x2="516.5" y1="543.2969" y2="543.2969"/><line style="stroke:#181818;stroke-width:0.5;" x1="441.5" x2="516.5" y1="551.2969" y2="551.2969"/></g><!--class PhysicalDamage--><g id="elem_PhysicalDamage"><rect fill="#F1F1F1" height="48" id="PhysicalDamage" rx="2.5" ry="2.5" style="stroke:#181818;stroke-width:0.5;" width="148" x="174" y="619.2969"/><ellipse cx="189" cy="635.2969" fill="#ADD1B2" rx="11" ry="11" style="stroke:#181818;stroke-width:1.0;"/><path d="M191.3438,630.9688 C190.4063,630.5313 189.8125,630.3906 188.9375,630.3906 C186.3125,630.3906 184.3125,632.4688 184.3125,635.1875 L184.3125,636.3125 C184.3125,638.8906 186.4219,640.7813 189.3125,640.7813 C190.5313,640.7813 191.6875,640.4844 192.4375,639.9375 C193.0156,639.5313 193.3438,639.0781 193.3438,638.6875 C193.3438,638.2344 192.9531,637.8438 192.4844,637.8438 C192.2656,637.8438 192.0625,637.9219 191.875,638.1094 C191.4219,638.5938 191.4219,638.5938 191.2344,638.6875 C190.8125,638.9531 190.125,639.0781 189.3594,639.0781 C187.3125,639.0781 186.0156,637.9844 186.0156,636.2813 L186.0156,635.1875 C186.0156,633.4063 187.2656,632.0938 189,632.0938 C189.5781,632.0938 190.1875,632.25 190.6563,632.5 C191.1406,632.7813 191.3125,633 191.4063,633.4063 C191.4688,633.8125 191.5,633.9375 191.6406,634.0625 C191.7813,634.2031 192.0156,634.3125 192.2344,634.3125 C192.5,634.3125 192.7656,634.1719 192.9375,633.9531 C193.0469,633.7969 193.0781,633.6094 193.0781,633.1875 L193.0781,631.7656 C193.0781,631.3281 193.0625,631.2031 192.9688,631.0469 C192.8125,630.7813 192.5313,630.6406 192.2344,630.6406 C191.9375,630.6406 191.7344,630.7344 191.5156,631.0469 L191.3438,630.9688 Z " fill="#000000"/><text fill="#000000" font-family="sans-serif" font-size="14" lengthAdjust="spacing" textLength="116" x="203" y="640.1436">PhysicalDamage</text><line style="stroke:#181818;stroke-width:0.5;" x1="175" x2="321" y1="651.2969" y2="651.2969"/><line style="stroke:#181818;stroke-width:0.5;" x1="175" x2="321" y1="659.2969" y2="659.2969"/></g><!--class MagicDamage--><g id="elem_MagicDamage"><rect fill="#F1F1F1" height="48" id="MagicDamage" rx="2.5" ry="2.5" style="stroke:#181818;stroke-width:0.5;" width="132" x="7" y="619.2969"/><ellipse cx="22" cy="635.2969" fill="#ADD1B2" rx="11" ry="11" style="stroke:#181818;stroke-width:1.0;"/><path d="M24.3438,630.9688 C23.4063,630.5313 22.8125,630.3906 21.9375,630.3906 C19.3125,630.3906 17.3125,632.4688 17.3125,635.1875 L17.3125,636.3125 C17.3125,638.8906 19.4219,640.7813 22.3125,640.7813 C23.5313,640.7813 24.6875,640.4844 25.4375,639.9375 C26.0156,639.5313 26.3438,639.0781 26.3438,638.6875 C26.3438,638.2344 25.9531,637.8438 25.4844,637.8438 C25.2656,637.8438 25.0625,637.9219 24.875,638.1094 C24.4219,638.5938 24.4219,638.5938 24.2344,638.6875 C23.8125,638.9531 23.125,639.0781 22.3594,639.0781 C20.3125,639.0781 19.0156,637.9844 19.0156,636.2813 L19.0156,635.1875 C19.0156,633.4063 20.2656,632.0938 22,632.0938 C22.5781,632.0938 23.1875,632.25 23.6563,632.5 C24.1406,632.7813 24.3125,633 24.4063,633.4063 C24.4688,633.8125 24.5,633.9375 24.6406,634.0625 C24.7813,634.2031 25.0156,634.3125 25.2344,634.3125 C25.5,634.3125 25.7656,634.1719 25.9375,633.9531 C26.0469,633.7969 26.0781,633.6094 26.0781,633.1875 L26.0781,631.7656 C26.0781,631.3281 26.0625,631.2031 25.9688,631.0469 C25.8125,630.7813 25.5313,630.6406 25.2344,630.6406 C24.9375,630.6406 24.7344,630.7344 24.5156,631.0469 L24.3438,630.9688 Z " fill="#000000"/><text fill="#000000" font-family="sans-serif" font-size="14" lengthAdjust="spacing" textLength="100" x="36" y="640.1436">MagicDamage</text><line style="stroke:#181818;stroke-width:0.5;" x1="8" x2="138" y1="651.2969" y2="651.2969"/><line style="stroke:#181818;stroke-width:0.5;" x1="8" x2="138" y1="659.2969" y2="659.2969"/></g><!--class PhysicalArmor--><g id="elem_PhysicalArmor"><rect fill="#F1F1F1" height="48" id="PhysicalArmor" rx="2.5" ry="2.5" style="stroke:#181818;stroke-width:0.5;" width="134" x="510" y="619.2969"/><ellipse cx="525" cy="635.2969" fill="#ADD1B2" rx="11" ry="11" style="stroke:#181818;stroke-width:1.0;"/><path d="M527.3438,630.9688 C526.4063,630.5313 525.8125,630.3906 524.9375,630.3906 C522.3125,630.3906 520.3125,632.4688 520.3125,635.1875 L520.3125,636.3125 C520.3125,638.8906 522.4219,640.7813 525.3125,640.7813 C526.5313,640.7813 527.6875,640.4844 528.4375,639.9375 C529.0156,639.5313 529.3438,639.0781 529.3438,638.6875 C529.3438,638.2344 528.9531,637.8438 528.4844,637.8438 C528.2656,637.8438 528.0625,637.9219 527.875,638.1094 C527.4219,638.5938 527.4219,638.5938 527.2344,638.6875 C526.8125,638.9531 526.125,639.0781 525.3594,639.0781 C523.3125,639.0781 522.0156,637.9844 522.0156,636.2813 L522.0156,635.1875 C522.0156,633.4063 523.2656,632.0938 525,632.0938 C525.5781,632.0938 526.1875,632.25 526.6563,632.5 C527.1406,632.7813 527.3125,633 527.4063,633.4063 C527.4688,633.8125 527.5,633.9375 527.6406,634.0625 C527.7813,634.2031 528.0156,634.3125 528.2344,634.3125 C528.5,634.3125 528.7656,634.1719 528.9375,633.9531 C529.0469,633.7969 529.0781,633.6094 529.0781,633.1875 L529.0781,631.7656 C529.0781,631.3281 529.0625,631.2031 528.9688,631.0469 C528.8125,630.7813 528.5313,630.6406 528.2344,630.6406 C527.9375,630.6406 527.7344,630.7344 527.5156,631.0469 L527.3438,630.9688 Z " fill="#000000"/><text fill="#000000" font-family="sans-serif" font-size="14" lengthAdjust="spacing" textLength="102" x="539" y="640.1436">PhysicalArmor</text><line style="stroke:#181818;stroke-width:0.5;" x1="511" x2="643" y1="651.2969" y2="651.2969"/><line style="stroke:#181818;stroke-width:0.5;" x1="511" x2="643" y1="659.2969" y2="659.2969"/></g><!--class MagicArmor--><g id="elem_MagicArmor"><rect fill="#F1F1F1" height="48" id="MagicArmor" rx="2.5" ry="2.5" style="stroke:#181818;stroke-width:0.5;" width="118" x="357" y="619.2969"/><ellipse cx="372" cy="635.2969" fill="#ADD1B2" rx="11" ry="11" style="stroke:#181818;stroke-width:1.0;"/><path d="M374.3438,630.9688 C373.4063,630.5313 372.8125,630.3906 371.9375,630.3906 C369.3125,630.3906 367.3125,632.4688 367.3125,635.1875 L367.3125,636.3125 C367.3125,638.8906 369.4219,640.7813 372.3125,640.7813 C373.5313,640.7813 374.6875,640.4844 375.4375,639.9375 C376.0156,639.5313 376.3438,639.0781 376.3438,638.6875 C376.3438,638.2344 375.9531,637.8438 375.4844,637.8438 C375.2656,637.8438 375.0625,637.9219 374.875,638.1094 C374.4219,638.5938 374.4219,638.5938 374.2344,638.6875 C373.8125,638.9531 373.125,639.0781 372.3594,639.0781 C370.3125,639.0781 369.0156,637.9844 369.0156,636.2813 L369.0156,635.1875 C369.0156,633.4063 370.2656,632.0938 372,632.0938 C372.5781,632.0938 373.1875,632.25 373.6563,632.5 C374.1406,632.7813 374.3125,633 374.4063,633.4063 C374.4688,633.8125 374.5,633.9375 374.6406,634.0625 C374.7813,634.2031 375.0156,634.3125 375.2344,634.3125 C375.5,634.3125 375.7656,634.1719 375.9375,633.9531 C376.0469,633.7969 376.0781,633.6094 376.0781,633.1875 L376.0781,631.7656 C376.0781,631.3281 376.0625,631.2031 375.9688,631.0469 C375.8125,630.7813 375.5313,630.6406 375.2344,630.6406 C374.9375,630.6406 374.7344,630.7344 374.5156,631.0469 L374.3438,630.9688 Z " fill="#000000"/><text fill="#000000" font-family="sans-serif" font-size="14" lengthAdjust="spacing" textLength="86" x="386" y="640.1436">MagicArmor</text><line style="stroke:#181818;stroke-width:0.5;" x1="358" x2="474" y1="651.2969" y2="651.2969"/><line style="stroke:#181818;stroke-width:0.5;" x1="358" x2="474" y1="659.2969" y2="659.2969"/></g><!--class WarriorType--><g id="elem_WarriorType"><rect fill="#F1F1F1" height="48" id="WarriorType" rx="2.5" ry="2.5" style="stroke:#181818;stroke-width:0.5;" width="121" x="679.5" y="619.2969"/><ellipse cx="694.5" cy="635.2969" fill="#ADD1B2" rx="11" ry="11" style="stroke:#181818;stroke-width:1.0;"/><path d="M696.8438,630.9688 C695.9063,630.5313 695.3125,630.3906 694.4375,630.3906 C691.8125,630.3906 689.8125,632.4688 689.8125,635.1875 L689.8125,636.3125 C689.8125,638.8906 691.9219,640.7813 694.8125,640.7813 C696.0313,640.7813 697.1875,640.4844 697.9375,639.9375 C698.5156,639.5313 698.8438,639.0781 698.8438,638.6875 C698.8438,638.2344 698.4531,637.8438 697.9844,637.8438 C697.7656,637.8438 697.5625,637.9219 697.375,638.1094 C696.9219,638.5938 696.9219,638.5938 696.7344,638.6875 C696.3125,638.9531 695.625,639.0781 694.8594,639.0781 C692.8125,639.0781 691.5156,637.9844 691.5156,636.2813 L691.5156,635.1875 C691.5156,633.4063 692.7656,632.0938 694.5,632.0938 C695.0781,632.0938 695.6875,632.25 696.1563,632.5 C696.6406,632.7813 696.8125,633 696.9063,633.4063 C696.9688,633.8125 697,633.9375 697.1406,634.0625 C697.2813,634.2031 697.5156,634.3125 697.7344,634.3125 C698,634.3125 698.2656,634.1719 698.4375,633.9531 C698.5469,633.7969 698.5781,633.6094 698.5781,633.1875 L698.5781,631.7656 C698.5781,631.3281 698.5625,631.2031 698.4688,631.0469 C698.3125,630.7813 698.0313,630.6406 697.7344,630.6406 C697.4375,630.6406 697.2344,630.7344 697.0156,631.0469 L696.8438,630.9688 Z " fill="#000000"/><text fill="#000000" font-family="sans-serif" font-size="14" lengthAdjust="spacing" textLength="89" x="708.5" y="640.1436">WarriorType</text><line style="stroke:#181818;stroke-width:0.5;" x1="680.5" x2="799.5" y1="651.2969" y2="651.2969"/><line style="stroke:#181818;stroke-width:0.5;" x1="680.5" x2="799.5" y1="659.2969" y2="659.2969"/></g><!--class Pop--><g id="elem_Pop"><rect fill="#F1F1F1" height="48" id="Pop" rx="2.5" ry="2.5" style="stroke:#181818;stroke-width:0.5;" width="60" x="480" y="727.2969"/><ellipse cx="495" cy="743.2969" fill="#ADD1B2" rx="11" ry="11" style="stroke:#181818;stroke-width:1.0;"/><path d="M497.3438,738.9688 C496.4063,738.5313 495.8125,738.3906 494.9375,738.3906 C492.3125,738.3906 490.3125,740.4688 490.3125,743.1875 L490.3125,744.3125 C490.3125,746.8906 492.4219,748.7813 495.3125,748.7813 C496.5313,748.7813 497.6875,748.4844 498.4375,747.9375 C499.0156,747.5313 499.3438,747.0781 499.3438,746.6875 C499.3438,746.2344 498.9531,745.8438 498.4844,745.8438 C498.2656,745.8438 498.0625,745.9219 497.875,746.1094 C497.4219,746.5938 497.4219,746.5938 497.2344,746.6875 C496.8125,746.9531 496.125,747.0781 495.3594,747.0781 C493.3125,747.0781 492.0156,745.9844 492.0156,744.2813 L492.0156,743.1875 C492.0156,741.4063 493.2656,740.0938 495,740.0938 C495.5781,740.0938 496.1875,740.25 496.6563,740.5 C497.1406,740.7813 497.3125,741 497.4063,741.4063 C497.4688,741.8125 497.5,741.9375 497.6406,742.0625 C497.7813,742.2031 498.0156,742.3125 498.2344,742.3125 C498.5,742.3125 498.7656,742.1719 498.9375,741.9531 C499.0469,741.7969 499.0781,741.6094 499.0781,741.1875 L499.0781,739.7656 C499.0781,739.3281 499.0625,739.2031 498.9688,739.0469 C498.8125,738.7813 498.5313,738.6406 498.2344,738.6406 C497.9375,738.6406 497.7344,738.7344 497.5156,739.0469 L497.3438,738.9688 Z " fill="#000000"/><text fill="#000000" font-family="sans-serif" font-size="14" lengthAdjust="spacing" textLength="28" x="509" y="748.1436">Pop</text><line style="stroke:#181818;stroke-width:0.5;" x1="481" x2="539" y1="759.2969" y2="759.2969"/><line style="stroke:#181818;stroke-width:0.5;" x1="481" x2="539" y1="767.2969" y2="767.2969"/></g><!--class Common--><g id="elem_Common"><rect fill="#F1F1F1" height="48" id="Common" rx="2.5" ry="2.5" style="stroke:#181818;stroke-width:0.5;" width="97" x="575.5" y="727.2969"/><ellipse cx="590.5" cy="743.2969" fill="#ADD1B2" rx="11" ry="11" style="stroke:#181818;stroke-width:1.0;"/><path d="M592.8438,738.9688 C591.9063,738.5313 591.3125,738.3906 590.4375,738.3906 C587.8125,738.3906 585.8125,740.4688 585.8125,743.1875 L585.8125,744.3125 C585.8125,746.8906 587.9219,748.7813 590.8125,748.7813 C592.0313,748.7813 593.1875,748.4844 593.9375,747.9375 C594.5156,747.5313 594.8438,747.0781 594.8438,746.6875 C594.8438,746.2344 594.4531,745.8438 593.9844,745.8438 C593.7656,745.8438 593.5625,745.9219 593.375,746.1094 C592.9219,746.5938 592.9219,746.5938 592.7344,746.6875 C592.3125,746.9531 591.625,747.0781 590.8594,747.0781 C588.8125,747.0781 587.5156,745.9844 587.5156,744.2813 L587.5156,743.1875 C587.5156,741.4063 588.7656,740.0938 590.5,740.0938 C591.0781,740.0938 591.6875,740.25 592.1563,740.5 C592.6406,740.7813 592.8125,741 592.9063,741.4063 C592.9688,741.8125 593,741.9375 593.1406,742.0625 C593.2813,742.2031 593.5156,742.3125 593.7344,742.3125 C594,742.3125 594.2656,742.1719 594.4375,741.9531 C594.5469,741.7969 594.5781,741.6094 594.5781,741.1875 L594.5781,739.7656 C594.5781,739.3281 594.5625,739.2031 594.4688,739.0469 C594.3125,738.7813 594.0313,738.6406 593.7344,738.6406 C593.4375,738.6406 593.2344,738.7344 593.0156,739.0469 L592.8438,738.9688 Z " fill="#000000"/><text fill="#000000" font-family="sans-serif" font-size="14" lengthAdjust="spacing" textLength="65" x="604.5" y="748.1436">Common</text><line style="stroke:#181818;stroke-width:0.5;" x1="576.5" x2="671.5" y1="759.2969" y2="759.2969"/><line style="stroke:#181818;stroke-width:0.5;" x1="576.5" x2="671.5" y1="767.2969" y2="767.2969"/></g><!--class Rare--><g id="elem_Rare"><rect fill="#F1F1F1" height="48" id="Rare" rx="2.5" ry="2.5" style="stroke:#181818;stroke-width:0.5;" width="65" x="707.5" y="727.2969"/><ellipse cx="722.5" cy="743.2969" fill="#ADD1B2" rx="11" ry="11" style="stroke:#181818;stroke-width:1.0;"/><path d="M724.8438,738.9688 C723.9063,738.5313 723.3125,738.3906 722.4375,738.3906 C719.8125,738.3906 717.8125,740.4688 717.8125,743.1875 L717.8125,744.3125 C717.8125,746.8906 719.9219,748.7813 722.8125,748.7813 C724.0313,748.7813 725.1875,748.4844 725.9375,747.9375 C726.5156,747.5313 726.8438,747.0781 726.8438,746.6875 C726.8438,746.2344 726.4531,745.8438 725.9844,745.8438 C725.7656,745.8438 725.5625,745.9219 725.375,746.1094 C724.9219,746.5938 724.9219,746.5938 724.7344,746.6875 C724.3125,746.9531 723.625,747.0781 722.8594,747.0781 C720.8125,747.0781 719.5156,745.9844 719.5156,744.2813 L719.5156,743.1875 C719.5156,741.4063 720.7656,740.0938 722.5,740.0938 C723.0781,740.0938 723.6875,740.25 724.1563,740.5 C724.6406,740.7813 724.8125,741 724.9063,741.4063 C724.9688,741.8125 725,741.9375 725.1406,742.0625 C725.2813,742.2031 725.5156,742.3125 725.7344,742.3125 C726,742.3125 726.2656,742.1719 726.4375,741.9531 C726.5469,741.7969 726.5781,741.6094 726.5781,741.1875 L726.5781,739.7656 C726.5781,739.3281 726.5625,739.2031 726.4688,739.0469 C726.3125,738.7813 726.0313,738.6406 725.7344,738.6406 C725.4375,738.6406 725.2344,738.7344 725.0156,739.0469 L724.8438,738.9688 Z " fill="#000000"/><text fill="#000000" font-family="sans-serif" font-size="14" lengthAdjust="spacing" textLength="33" x="736.5" y="748.1436">Rare</text><line style="stroke:#181818;stroke-width:0.5;" x1="708.5" x2="771.5" y1="759.2969" y2="759.2969"/><line style="stroke:#181818;stroke-width:0.5;" x1="708.5" x2="771.5" y1="767.2969" y2="767.2969"/></g><!--class Epic--><g id="elem_Epic"><rect fill="#F1F1F1" height="48" id="Epic" rx="2.5" ry="2.5" style="stroke:#181818;stroke-width:0.5;" width="63" x="807.5" y="727.2969"/><ellipse cx="822.5" cy="743.2969" fill="#ADD1B2" rx="11" ry="11" style="stroke:#181818;stroke-width:1.0;"/><path d="M824.8438,738.9688 C823.9063,738.5313 823.3125,738.3906 822.4375,738.3906 C819.8125,738.3906 817.8125,740.4688 817.8125,743.1875 L817.8125,744.3125 C817.8125,746.8906 819.9219,748.7813 822.8125,748.7813 C824.0313,748.7813 825.1875,748.4844 825.9375,747.9375 C826.5156,747.5313 826.8438,747.0781 826.8438,746.6875 C826.8438,746.2344 826.4531,745.8438 825.9844,745.8438 C825.7656,745.8438 825.5625,745.9219 825.375,746.1094 C824.9219,746.5938 824.9219,746.5938 824.7344,746.6875 C824.3125,746.9531 823.625,747.0781 822.8594,747.0781 C820.8125,747.0781 819.5156,745.9844 819.5156,744.2813 L819.5156,743.1875 C819.5156,741.4063 820.7656,740.0938 822.5,740.0938 C823.0781,740.0938 823.6875,740.25 824.1563,740.5 C824.6406,740.7813 824.8125,741 824.9063,741.4063 C824.9688,741.8125 825,741.9375 825.1406,742.0625 C825.2813,742.2031 825.5156,742.3125 825.7344,742.3125 C826,742.3125 826.2656,742.1719 826.4375,741.9531 C826.5469,741.7969 826.5781,741.6094 826.5781,741.1875 L826.5781,739.7656 C826.5781,739.3281 826.5625,739.2031 826.4688,739.0469 C826.3125,738.7813 826.0313,738.6406 825.7344,738.6406 C825.4375,738.6406 825.2344,738.7344 825.0156,739.0469 L824.8438,738.9688 Z " fill="#000000"/><text fill="#000000" font-family="sans-serif" font-size="14" lengthAdjust="spacing" textLength="31" x="836.5" y="748.1436">Epic</text><line style="stroke:#181818;stroke-width:0.5;" x1="808.5" x2="869.5" y1="759.2969" y2="759.2969"/><line style="stroke:#181818;stroke-width:0.5;" x1="808.5" x2="869.5" y1="767.2969" y2="767.2969"/></g><!--class Legendary--><g id="elem_Legendary"><rect fill="#F1F1F1" height="48" id="Legendary" rx="2.5" ry="2.5" style="stroke:#181818;stroke-width:0.5;" width="107" x="905.5" y="727.2969"/><ellipse cx="920.5" cy="743.2969" fill="#ADD1B2" rx="11" ry="11" style="stroke:#181818;stroke-width:1.0;"/><path d="M922.8438,738.9688 C921.9063,738.5313 921.3125,738.3906 920.4375,738.3906 C917.8125,738.3906 915.8125,740.4688 915.8125,743.1875 L915.8125,744.3125 C915.8125,746.8906 917.9219,748.7813 920.8125,748.7813 C922.0313,748.7813 923.1875,748.4844 923.9375,747.9375 C924.5156,747.5313 924.8438,747.0781 924.8438,746.6875 C924.8438,746.2344 924.4531,745.8438 923.9844,745.8438 C923.7656,745.8438 923.5625,745.9219 923.375,746.1094 C922.9219,746.5938 922.9219,746.5938 922.7344,746.6875 C922.3125,746.9531 921.625,747.0781 920.8594,747.0781 C918.8125,747.0781 917.5156,745.9844 917.5156,744.2813 L917.5156,743.1875 C917.5156,741.4063 918.7656,740.0938 920.5,740.0938 C921.0781,740.0938 921.6875,740.25 922.1563,740.5 C922.6406,740.7813 922.8125,741 922.9063,741.4063 C922.9688,741.8125 923,741.9375 923.1406,742.0625 C923.2813,742.2031 923.5156,742.3125 923.7344,742.3125 C924,742.3125 924.2656,742.1719 924.4375,741.9531 C924.5469,741.7969 924.5781,741.6094 924.5781,741.1875 L924.5781,739.7656 C924.5781,739.3281 924.5625,739.2031 924.4688,739.0469 C924.3125,738.7813 924.0313,738.6406 923.7344,738.6406 C923.4375,738.6406 923.2344,738.7344 923.0156,739.0469 L922.8438,738.9688 Z " fill="#000000"/><text fill="#000000" font-family="sans-serif" font-size="14" lengthAdjust="spacing" textLength="75" x="934.5" y="748.1436">Legendary</text><line style="stroke:#181818;stroke-width:0.5;" x1="906.5" x2="1011.5" y1="759.2969" y2="759.2969"/><line style="stroke:#181818;stroke-width:0.5;" x1="906.5" x2="1011.5" y1="767.2969" y2="767.2969"/></g><!--link Game to Player--><g id="link_Game_Player"><path codeLine="39" d="M1226,92.3379 C1226,109.1109 1226,132.2469 1226,151.9849 " fill="none" id="Game-Player" style="stroke:#181818;stroke-width:1.0;"/><text fill="#000000" font-family="sans-serif" font-size="13" lengthAdjust="spacing" textLength="25" x="1198.9297" y="141.0947">2..N</text></g><!--link Game to Deck--><g id="link_Game_Deck"><path codeLine="40" d="M1188.96,81.8309 C1120.33,105.0549 973.991,154.5759 903.528,178.4209 " fill="none" id="Game-to-Deck" style="stroke:#181818;stroke-width:1.0;"/><polygon fill="#181818" points="898.588,180.0919,908.3951,180.998,903.3245,178.4902,905.8324,173.4196,898.588,180.0919" style="stroke:#181818;stroke-width:1.0;"/></g><!--link Game to Round--><g id="link_Game_Round"><path codeLine="41" d="M1263.13,86.4589 C1311.66,108.8939 1396.51,148.1179 1447.85,171.8499 " fill="none" id="Game-to-Round" style="stroke:#181818;stroke-width:1.0;"/><polygon fill="#181818" points="1452.41,173.9559,1445.9217,166.5463,1447.8722,171.8562,1442.5623,173.8068,1452.41,173.9559" style="stroke:#181818;stroke-width:1.0;"/></g><!--reverse link Round to RoundZero--><g id="link_Round_RoundZero"><path codeLine="42" d="M1531.81,230.8249 C1558.62,255.1579 1593.31,286.6349 1618.7,309.6749 " fill="none" id="Round-backto-RoundZero" style="stroke:#181818;stroke-width:1.0;"/><polygon fill="none" points="1526.78,235.7129,1516.67,217.0899,1536.18,225.3449,1526.78,235.7129" style="stroke:#181818;stroke-width:1.0;"/></g><!--reverse link Round to RoundOne--><g id="link_Round_RoundOne"><path codeLine="43" d="M1548.84,214.8819 C1597.26,233.3299 1667.61,262.0119 1726,293.2969 C1735.11,298.1769 1744.54,303.8769 1753.45,309.5999 " fill="none" id="Round-backto-RoundOne" style="stroke:#181818;stroke-width:1.0;"/><polygon fill="none" points="1546.11,221.3319,1529.85,207.7419,1551.03,208.2269,1546.11,221.3319" style="stroke:#181818;stroke-width:1.0;"/></g><!--reverse link Round to RoundTwo--><g id="link_Round_RoundTwo"><path codeLine="44" d="M1549.19,204.8319 C1624.69,220.1019 1759.8,250.6939 1870,293.2969 C1876.15,295.6749 1882.42,298.3569 1888.66,301.2069 " fill="none" id="Round-backto-RoundTwo" style="stroke:#181818;stroke-width:1.0;"/><polygon fill="none" points="1547.8,211.6919,1529.54,200.9339,1550.52,197.9599,1547.8,211.6919" style="stroke:#181818;stroke-width:1.0;"/></g><!--reverse link Round to RoundThree--><g id="link_Round_RoundThree"><path codeLine="45" d="M1549.85,196.9649 C1654.19,204.1529 1877.08,226.6269 2052,293.2969 C2063.15,297.5479 2074.47,303.4619 2084.87,309.6759 " fill="none" id="Round-backto-RoundThree" style="stroke:#181818;stroke-width:1.0;"/><polygon fill="none" points="1549.25,203.9409,1529.74,195.6709,1550.15,189.9699,1549.25,203.9409" style="stroke:#181818;stroke-width:1.0;"/></g><!--reverse link Round to RoundFour--><g id="link_Round_RoundFour"><path codeLine="46" d="M1432.61,208.2999 C1328.28,234.2879 1119.24,286.7059 1104,293.2969 C1093.53,297.8239 1082.85,303.7019 1072.95,309.7729 " fill="none" id="Round-backto-RoundFour" style="stroke:#181818;stroke-width:1.0;"/><polygon fill="none" points="1431.19,201.4399,1452.29,203.4029,1434.57,215.0259,1431.19,201.4399" style="stroke:#181818;stroke-width:1.0;"/></g><!--reverse link Round to RoundFive--><g id="link_Round_RoundFive"><path codeLine="47" d="M1433.56,214.8089 C1384.79,233.3759 1313.46,262.2649 1254,293.2969 C1248.26,296.2919 1242.39,299.5829 1236.58,302.9919 " fill="none" id="Round-backto-RoundFive" style="stroke:#181818;stroke-width:1.0;"/><polygon fill="none" points="1431.16,208.2329,1452.34,207.7429,1436.09,221.3369,1431.16,208.2329" style="stroke:#181818;stroke-width:1.0;"/></g><!--reverse link Round to RoundSix--><g id="link_Round_RoundSix"><path codeLine="48" d="M1449.94,230.8249 C1422.96,255.1579 1388.06,286.6349 1362.51,309.6749 " fill="none" id="Round-backto-RoundSix" style="stroke:#181818;stroke-width:1.0;"/><polygon fill="none" points="1445.63,225.2859,1465.17,217.0899,1455.01,235.6819,1445.63,225.2859" style="stroke:#181818;stroke-width:1.0;"/></g><!--reverse link Round to RoundUnknown--><g id="link_Round_RoundUnknown"><path codeLine="49" d="M1491,237.1379 C1491,260.4179 1491,288.5819 1491,309.6749 " fill="none" id="Round-backto-RoundUnknown" style="stroke:#181818;stroke-width:1.0;"/><polygon fill="none" points="1484,237.0899,1491,217.0899,1498,237.0899,1484,237.0899" style="stroke:#181818;stroke-width:1.0;"/></g><!--link Card to Deck--><g id="link_Card_Deck"><path codeLine="62" d="M692.171,192.7969 C737.925,192.7969 783.679,192.7969 829.433,192.7969 " fill="none" id="Card-Deck" style="stroke:#181818;stroke-width:1.0;"/><text fill="#000000" font-family="sans-serif" font-size="13" lengthAdjust="spacing" textLength="25" x="700.0781" y="189.3328">1..N</text></g><!--reverse link Card to LeaderCard--><g id="link_Card_LeaderCard"><path codeLine="91" d="M482.165,221.1549 C414.191,238.7629 326.987,263.8369 252,293.2969 C239.832,298.0769 227.128,303.8929 215.137,309.7919 " fill="none" id="Card-backto-LeaderCard" style="stroke:#181818;stroke-width:1.0;"/><polygon fill="none" points="480.591,214.3319,501.702,216.1619,484.058,227.8959,480.591,214.3319" style="stroke:#181818;stroke-width:1.0;"/></g><!--reverse link Card to EquipmentCard--><g id="link_Card_EquipmentCard"><path codeLine="92" d="M517.925,244.3359 C493.107,260.1979 465.808,277.6459 441.33,293.2899 " fill="none" id="Card-backto-EquipmentCard" style="stroke:#181818;stroke-width:1.0;"/><polygon fill="none" points="514.44,238.2559,535.062,233.3839,521.979,250.0529,514.44,238.2559" style="stroke:#181818;stroke-width:1.0;"/></g><!--reverse link Card to SpellCard--><g id="link_Card_SpellCard"><path codeLine="93" d="M677.8,244.1259 C712.78,265.9139 752.619,290.7289 783.175,309.7619 " fill="none" id="Card-backto-SpellCard" style="stroke:#181818;stroke-width:1.0;"/><polygon fill="none" points="673.829,249.8989,660.554,233.3839,681.231,238.0159,673.829,249.8989" style="stroke:#181818;stroke-width:1.0;"/></g><!--reverse link Card to WarriorCard--><g id="link_Card_WarriorCard"><path codeLine="94" d="M597,254.0039 C597,267.0439 597,280.6619 597,293.1399 " fill="none" id="Card-backto-WarriorCard" style="stroke:#181818;stroke-width:1.0;"/><polygon fill="none" points="590,253.5769,597,233.5769,604,253.5769,590,253.5769" style="stroke:#181818;stroke-width:1.0;"/></g><!--link LeaderCard to Damage--><g id="link_LeaderCard_Damage"><path codeLine="96" d="M172.66,373.9909 C189.964,410.8099 218.472,471.4669 235.012,506.6619 " fill="none" id="LeaderCard-to-Damage" style="stroke:#181818;stroke-width:1.0;"/><polygon fill="#181818" points="237.166,511.2439,236.9577,501.3972,235.0391,506.7188,229.7176,504.8002,237.166,511.2439" style="stroke:#181818;stroke-width:1.0;"/></g><!--link EquipmentCard to Damage--><g id="link_EquipmentCard_Damage"><path codeLine="97" d="M337.278,390.6269 C313.39,429.0679 280.874,481.3949 262.397,511.1279 " fill="none" id="EquipmentCard-Damage" style="stroke:#181818;stroke-width:1.0;"/><text fill="#000000" font-family="sans-serif" font-size="13" lengthAdjust="spacing" textLength="24" x="239.0112" y="500.0966">0..2</text></g><!--link EquipmentCard to Armor--><g id="link_EquipmentCard_Armor"><path codeLine="98" d="M394.973,390.6269 C417.456,429.0679 448.06,481.3949 465.45,511.1279 " fill="none" id="EquipmentCard-Armor" style="stroke:#181818;stroke-width:1.0;"/><text fill="#000000" font-family="sans-serif" font-size="13" lengthAdjust="spacing" textLength="24" x="434.9028" y="500.0966">0..2</text></g><!--link WarriorCard to Damage--><g id="link_WarriorCard_Damage"><path codeLine="99" d="M510.282,390.3799 C440.231,428.8179 344.659,481.2589 290.336,511.0669 " fill="none" id="WarriorCard-Damage" style="stroke:#181818;stroke-width:1.0;"/><text fill="#000000" font-family="sans-serif" font-size="13" lengthAdjust="spacing" textLength="24" x="273.7304" y="500.4158">0..2</text></g><!--link WarriorCard to Armor--><g id="link_WarriorCard_Armor"><path codeLine="100" d="M567.528,390.6269 C543.841,429.0679 511.598,481.3949 493.276,511.1279 " fill="none" id="WarriorCard-Armor" style="stroke:#181818;stroke-width:1.0;"/><text fill="#000000" font-family="sans-serif" font-size="13" lengthAdjust="spacing" textLength="24" x="469.8592" y="500.0966">0..2</text></g><!--reverse link Damage to PhysicalDamage--><g id="link_Damage_PhysicalDamage"><path codeLine="102" d="M248,579.3209 C248,592.8759 248,607.3349 248,618.9749 " fill="none" id="Damage-backto-PhysicalDamage" style="stroke:#181818;stroke-width:1.0;"/><polygon fill="none" points="241,579.2969,248,559.2969,255,579.2969,241,579.2969" style="stroke:#181818;stroke-width:1.0;"/><text fill="#000000" font-family="sans-serif" font-size="13" lengthAdjust="spacing" textLength="24" x="221.075" y="608.3013">0..1</text></g><!--reverse link Damage to MagicDamage--><g id="link_Damage_MagicDamage"><path codeLine="103" d="M192.556,569.8799 C166.061,585.9289 135.014,604.7339 111.2,619.1589 " fill="none" id="Damage-backto-MagicDamage" style="stroke:#181818;stroke-width:1.0;"/><polygon fill="none" points="189.294,563.6719,210.028,559.2969,196.548,575.6459,189.294,563.6719" style="stroke:#181818;stroke-width:1.0;"/><text fill="#000000" font-family="sans-serif" font-size="13" lengthAdjust="spacing" textLength="24" x="93.9139" y="608.1355">0..1</text></g><!--reverse link Armor to PhysicalArmor--><g id="link_Armor_PhysicalArmor"><path codeLine="105" d="M513.904,574.0499 C527.763,589.0409 543.267,605.8109 555.439,618.9749 " fill="none" id="Armor-backto-PhysicalArmor" style="stroke:#181818;stroke-width:1.0;"/><polygon fill="none" points="508.702,578.7349,500.265,559.2969,518.982,569.2309,508.702,578.7349" style="stroke:#181818;stroke-width:1.0;"/><text fill="#000000" font-family="sans-serif" font-size="13" lengthAdjust="spacing" textLength="24" x="523.2585" y="608.3013">0..1</text></g><!--reverse link Armor to MagicArmor--><g id="link_Armor_MagicArmor"><path codeLine="106" d="M454.862,576.9099 C446.402,591.1449 437.191,606.6419 429.861,618.9749 " fill="none" id="Armor-backto-MagicArmor" style="stroke:#181818;stroke-width:1.0;"/><polygon fill="none" points="449.094,572.9139,465.33,559.2969,461.129,580.0659,449.094,572.9139" style="stroke:#181818;stroke-width:1.0;"/><text fill="#000000" font-family="sans-serif" font-size="13" lengthAdjust="spacing" textLength="24" x="406.3146" y="608.3013">0..1</text></g><!--link WarriorCard to WarriorType--><g id="link_WarriorCard_WarriorType"><path codeLine="108" d="M619.817,390.5849 C649.991,453.7809 702.193,563.1129 726.642,614.3199 " fill="none" id="WarriorCard-to-WarriorType" style="stroke:#181818;stroke-width:1.0;"/><polygon fill="#181818" points="728.92,619.0909,728.6526,609.2456,726.766,614.5786,721.433,612.692,728.92,619.0909" style="stroke:#181818;stroke-width:1.0;"/></g><!--reverse link WarriorType to Pop--><g id="link_WarriorType_Pop"><path codeLine="109" d="M669.99,675.8503 C636.097,691.2209 594.857,710.0643 558,727.2969 C552.224,729.9974 546.075,732.9131 540.173,735.7317 " fill="none" id="WarriorType-backto-Pop" style="stroke:#181818;stroke-width:1.0;"/><polygon fill="none" points="667.389,669.3439,688.496,667.4709,673.164,682.0972,667.389,669.3439" style="stroke:#181818;stroke-width:1.0;"/></g><!--reverse link WarriorType to Common--><g id="link_WarriorType_Common"><path codeLine="110" d="M699.976,680.8702 C683.249,696.1558 664.307,713.4642 649.522,726.9753 " fill="none" id="WarriorType-backto-Common" style="stroke:#181818;stroke-width:1.0;"/><polygon fill="none" points="695.343,675.6213,714.83,667.2969,704.788,685.9563,695.343,675.6213" style="stroke:#181818;stroke-width:1.0;"/></g><!--reverse link WarriorType to Rare--><g id="link_WarriorType_Rare"><path codeLine="111" d="M740,687.3205 C740,700.8761 740,715.335 740,726.9753 " fill="none" id="WarriorType-backto-Rare" style="stroke:#181818;stroke-width:1.0;"/><polygon fill="none" points="733,687.2974,740,667.2969,747,687.2973,733,687.2974" style="stroke:#181818;stroke-width:1.0;"/></g><!--reverse link WarriorType to Epic--><g id="link_WarriorType_Epic"><path codeLine="112" d="M775.26,682.0499 C789.261,697.0409 804.923,713.8107 817.219,726.9753 " fill="none" id="WarriorType-backto-Epic" style="stroke:#181818;stroke-width:1.0;"/><polygon fill="none" points="770.017,686.6918,761.482,667.2969,780.249,677.1359,770.017,686.6918" style="stroke:#181818;stroke-width:1.0;"/></g><!--reverse link WarriorType to Legendary--><g id="link_WarriorType_Legendary"><path codeLine="113" d="M805.584,676.0408 C839.539,692.4758 880.247,712.1792 911.195,727.1586 " fill="none" id="WarriorType-backto-Legendary" style="stroke:#181818;stroke-width:1.0;"/><polygon fill="none" points="802.472,682.3115,787.52,667.2969,808.572,669.7099,802.472,682.3115" style="stroke:#181818;stroke-width:1.0;"/></g><!--SRC=[jLHDRzim3BthLmY-xEHWoNaTi2LjTqZReCqmO3VE9XAXikJHJZkZwt-VlkBAbhlcKXyCyv5yf9ufRaKhaPUw0g4uA91T8nh6bXAQXbz2XVpf-MZUweCgVo9f_iJudAyHIYGsTDyejDu5_m54GXFVw7eKidqC1758P2vrLMarJjeJea-xgr7AaVj27sX8UWk4uo3nCA3uV_IT-3DaFAz5COhvhkwLVbIZlfniUSwpnMnsdV6DXCxe5D3FV8N5_OlbU9Xxyqz_JLQlSW8QRHFCY9bYLgi4jHAbe94a0St94ooSbB4FPoSzuTJzA7dJ2dLjJvvTWIgXrTHbZ7yLrEvNq0xXvzDhMKNxIjPmG-i-yhNv3tFt7vP0vUcSDhhdjCPqxoji2X9rAxGQT-zJ_Iqv4dn3aEr-EjBDpp7G68K0oU6NaABjfZFEVnz4NQ5gNyswSPs1p2PB1so3j3sGYgFx4c7utwM0vNGJzg9H10uE5-6zJ14MTSbOf7ZkxXjKi4Cs52ktz_FZRBR8tlH_eKeJYuL8ar_n-bJcWtohrZCtIs5l5cq1CkHFH5p1JXJ1pHpH984laVfTUgW_wive4f1jL_Uzss_FOFTn0eQjdE1kSoQesvK9kiOTcjcWxXy0]--></g></svg>