<?xml version="1.0" encoding="us-ascii" standalone="no"?><svg xmlns="http://www.w3.org/2000/svg" xmlns:xlink="http://www.w3.org/1999/xlink" contentStyleType="text/css" height="1718px" preserveAspectRatio="none" style="width:2135px;height:1718px;background:#FFFFFF;" version="1.1" viewBox="0 0 2135 1718" width="2135px" zoomAndPan="magnify"><defs/><g><text fill="#000000" font-family="sans-serif" font-size="14" font-weight="bold" lengthAdjust="spacing" textLength="119" x="1001.25" y="22.9951">Domain design</text><!--class Game--><g id="elem_Game"><rect codeLine="3" fill="#F1F1F1" height="162.0781" id="Game" rx="2.5" ry="2.5" style="stroke:#181818;stroke-width:0.5;" width="232" x="372" y="44.2969"/><ellipse cx="462.75" cy="60.2969" fill="#ADD1B2" rx="11" ry="11" style="stroke:#181818;stroke-width:1.0;"/><path d="M465.0938,55.9688 C464.1563,55.5313 463.5625,55.3906 462.6875,55.3906 C460.0625,55.3906 458.0625,57.4688 458.0625,60.1875 L458.0625,61.3125 C458.0625,63.8906 460.1719,65.7813 463.0625,65.7813 C464.2813,65.7813 465.4375,65.4844 466.1875,64.9375 C466.7656,64.5313 467.0938,64.0781 467.0938,63.6875 C467.0938,63.2344 466.7031,62.8438 466.2344,62.8438 C466.0156,62.8438 465.8125,62.9219 465.625,63.1094 C465.1719,63.5938 465.1719,63.5938 464.9844,63.6875 C464.5625,63.9531 463.875,64.0781 463.1094,64.0781 C461.0625,64.0781 459.7656,62.9844 459.7656,61.2813 L459.7656,60.1875 C459.7656,58.4063 461.0156,57.0938 462.75,57.0938 C463.3281,57.0938 463.9375,57.25 464.4063,57.5 C464.8906,57.7813 465.0625,58 465.1563,58.4063 C465.2188,58.8125 465.25,58.9375 465.3906,59.0625 C465.5313,59.2031 465.7656,59.3125 465.9844,59.3125 C466.25,59.3125 466.5156,59.1719 466.6875,58.9531 C466.7969,58.7969 466.8281,58.6094 466.8281,58.1875 L466.8281,56.7656 C466.8281,56.3281 466.8125,56.2031 466.7188,56.0469 C466.5625,55.7813 466.2813,55.6406 465.9844,55.6406 C465.6875,55.6406 465.4844,55.7344 465.2656,56.0469 L465.0938,55.9688 Z " fill="#000000"/><text fill="#000000" font-family="sans-serif" font-size="14" lengthAdjust="spacing" textLength="42" x="483.25" y="65.1436">Game</text><line style="stroke:#181818;stroke-width:0.5;" x1="373" x2="603" y1="76.2969" y2="76.2969"/><rect fill="none" height="6" style="stroke:#C82930;stroke-width:1.0;" width="6" x="380" y="86.9453"/><text fill="#000000" font-family="sans-serif" font-size="14" lengthAdjust="spacing" textLength="70" x="392" y="93.292">round: int</text><rect fill="none" height="6" style="stroke:#C82930;stroke-width:1.0;" width="6" x="380" y="103.2422"/><text fill="#000000" font-family="sans-serif" font-size="14" lengthAdjust="spacing" textLength="101" x="392" y="109.5889">dealer: Dealer</text><rect fill="none" height="6" style="stroke:#C82930;stroke-width:1.0;" width="6" x="380" y="119.5391"/><text fill="#000000" font-family="sans-serif" font-size="14" lengthAdjust="spacing" textLength="160" x="392" y="125.8857">players: List&lt;Players&gt;</text><line style="stroke:#181818;stroke-width:0.5;" x1="373" x2="603" y1="133.1875" y2="133.1875"/><ellipse cx="383" cy="146.8359" fill="#84BE84" rx="3" ry="3" style="stroke:#038048;stroke-width:1.0;"/><text fill="#000000" font-family="sans-serif" font-size="14" lengthAdjust="spacing" textLength="206" x="392" y="150.1826">Game(Dealer, List&lt;Players&gt;)</text><rect fill="#F24D5C" height="6" style="stroke:#C82930;stroke-width:1.0;" width="6" x="380" y="160.1328"/><text fill="#000000" font-family="sans-serif" font-size="14" lengthAdjust="spacing" textLength="84" x="392" y="166.4795">start(): void</text><rect fill="#F24D5C" height="6" style="stroke:#C82930;stroke-width:1.0;" width="6" x="380" y="176.4297"/><text fill="#000000" font-family="sans-serif" font-size="14" lengthAdjust="spacing" textLength="124" x="392" y="182.7764">playRound(): void</text><rect fill="#F24D5C" height="6" style="stroke:#C82930;stroke-width:1.0;" width="6" x="380" y="192.7266"/><text fill="#000000" font-family="sans-serif" font-size="14" lengthAdjust="spacing" textLength="155" x="392" y="199.0732">playTurn(Player): void</text></g><!--class Player--><g id="elem_Player"><rect codeLine="13" fill="#F1F1F1" height="129.4844" id="Player" rx="2.5" ry="2.5" style="stroke:#181818;stroke-width:0.5;" width="209" x="60.5" y="282.7969"/><ellipse cx="138.75" cy="298.7969" fill="#ADD1B2" rx="11" ry="11" style="stroke:#181818;stroke-width:1.0;"/><path d="M141.0938,294.4688 C140.1563,294.0313 139.5625,293.8906 138.6875,293.8906 C136.0625,293.8906 134.0625,295.9688 134.0625,298.6875 L134.0625,299.8125 C134.0625,302.3906 136.1719,304.2813 139.0625,304.2813 C140.2813,304.2813 141.4375,303.9844 142.1875,303.4375 C142.7656,303.0313 143.0938,302.5781 143.0938,302.1875 C143.0938,301.7344 142.7031,301.3438 142.2344,301.3438 C142.0156,301.3438 141.8125,301.4219 141.625,301.6094 C141.1719,302.0938 141.1719,302.0938 140.9844,302.1875 C140.5625,302.4531 139.875,302.5781 139.1094,302.5781 C137.0625,302.5781 135.7656,301.4844 135.7656,299.7813 L135.7656,298.6875 C135.7656,296.9063 137.0156,295.5938 138.75,295.5938 C139.3281,295.5938 139.9375,295.75 140.4063,296 C140.8906,296.2813 141.0625,296.5 141.1563,296.9063 C141.2188,297.3125 141.25,297.4375 141.3906,297.5625 C141.5313,297.7031 141.7656,297.8125 141.9844,297.8125 C142.25,297.8125 142.5156,297.6719 142.6875,297.4531 C142.7969,297.2969 142.8281,297.1094 142.8281,296.6875 L142.8281,295.2656 C142.8281,294.8281 142.8125,294.7031 142.7188,294.5469 C142.5625,294.2813 142.2813,294.1406 141.9844,294.1406 C141.6875,294.1406 141.4844,294.2344 141.2656,294.5469 L141.0938,294.4688 Z " fill="#000000"/><text fill="#000000" font-family="sans-serif" font-size="14" lengthAdjust="spacing" textLength="44" x="159.25" y="303.6436">Player</text><line style="stroke:#181818;stroke-width:0.5;" x1="61.5" x2="268.5" y1="314.7969" y2="314.7969"/><rect fill="none" height="6" style="stroke:#C82930;stroke-width:1.0;" width="6" x="68.5" y="325.4453"/><text fill="#000000" font-family="sans-serif" font-size="14" lengthAdjust="spacing" textLength="57" x="80.5" y="331.792">id: Long</text><rect fill="none" height="6" style="stroke:#C82930;stroke-width:1.0;" width="6" x="68.5" y="341.7422"/><text fill="#000000" font-family="sans-serif" font-size="14" lengthAdjust="spacing" textLength="93" x="80.5" y="348.0889">name: String</text><rect fill="none" height="6" style="stroke:#C82930;stroke-width:1.0;" width="6" x="68.5" y="358.0391"/><text fill="#000000" font-family="sans-serif" font-size="14" lengthAdjust="spacing" textLength="152" x="80.5" y="364.3857">birthDate: LocalDate</text><rect fill="none" height="6" style="stroke:#C82930;stroke-width:1.0;" width="6" x="68.5" y="374.3359"/><text fill="#000000" font-family="sans-serif" font-size="14" lengthAdjust="spacing" textLength="177" x="80.5" y="380.6826">cardsInHand: List&lt;Card&gt;</text><rect fill="none" height="6" style="stroke:#C82930;stroke-width:1.0;" width="6" x="68.5" y="390.6328"/><text fill="#000000" font-family="sans-serif" font-size="14" lengthAdjust="spacing" textLength="183" x="80.5" y="396.9795">cardsInBoard: List&lt;Card&gt;</text><line style="stroke:#181818;stroke-width:0.5;" x1="61.5" x2="268.5" y1="404.2813" y2="404.2813"/></g><!--class PlayerHand--><g id="elem_PlayerHand"><rect codeLine="21" fill="#F1F1F1" height="178.375" id="PlayerHand" rx="2.5" ry="2.5" style="stroke:#181818;stroke-width:0.5;" width="284" x="7" y="488.2969"/><ellipse cx="104.75" cy="504.2969" fill="#ADD1B2" rx="11" ry="11" style="stroke:#181818;stroke-width:1.0;"/><path d="M107.0938,499.9688 C106.1563,499.5313 105.5625,499.3906 104.6875,499.3906 C102.0625,499.3906 100.0625,501.4688 100.0625,504.1875 L100.0625,505.3125 C100.0625,507.8906 102.1719,509.7813 105.0625,509.7813 C106.2813,509.7813 107.4375,509.4844 108.1875,508.9375 C108.7656,508.5313 109.0938,508.0781 109.0938,507.6875 C109.0938,507.2344 108.7031,506.8438 108.2344,506.8438 C108.0156,506.8438 107.8125,506.9219 107.625,507.1094 C107.1719,507.5938 107.1719,507.5938 106.9844,507.6875 C106.5625,507.9531 105.875,508.0781 105.1094,508.0781 C103.0625,508.0781 101.7656,506.9844 101.7656,505.2813 L101.7656,504.1875 C101.7656,502.4063 103.0156,501.0938 104.75,501.0938 C105.3281,501.0938 105.9375,501.25 106.4063,501.5 C106.8906,501.7813 107.0625,502 107.1563,502.4063 C107.2188,502.8125 107.25,502.9375 107.3906,503.0625 C107.5313,503.2031 107.7656,503.3125 107.9844,503.3125 C108.25,503.3125 108.5156,503.1719 108.6875,502.9531 C108.7969,502.7969 108.8281,502.6094 108.8281,502.1875 L108.8281,500.7656 C108.8281,500.3281 108.8125,500.2031 108.7188,500.0469 C108.5625,499.7813 108.2813,499.6406 107.9844,499.6406 C107.6875,499.6406 107.4844,499.7344 107.2656,500.0469 L107.0938,499.9688 Z " fill="#000000"/><text fill="#000000" font-family="sans-serif" font-size="14" lengthAdjust="spacing" textLength="80" x="125.25" y="509.1436">PlayerHand</text><line style="stroke:#181818;stroke-width:0.5;" x1="8" x2="290" y1="520.2969" y2="520.2969"/><rect fill="none" height="6" style="stroke:#C82930;stroke-width:1.0;" width="6" x="15" y="530.9453"/><text fill="#000000" font-family="sans-serif" font-size="14" lengthAdjust="spacing" textLength="128" x="27" y="537.292">cards: List&lt;Card&gt;</text><line style="stroke:#181818;stroke-width:0.5;" x1="8" x2="290" y1="544.5938" y2="544.5938"/><ellipse cx="18" cy="558.2422" fill="#84BE84" rx="3" ry="3" style="stroke:#038048;stroke-width:1.0;"/><text fill="#000000" font-family="sans-serif" font-size="14" lengthAdjust="spacing" textLength="90" x="27" y="561.5889">PlayerHand()</text><ellipse cx="18" cy="574.5391" fill="#84BE84" rx="3" ry="3" style="stroke:#038048;stroke-width:1.0;"/><text fill="#000000" font-family="sans-serif" font-size="14" lengthAdjust="spacing" textLength="195" x="27" y="577.8857">addCardToHand(Card): void</text><ellipse cx="18" cy="590.8359" fill="#84BE84" rx="3" ry="3" style="stroke:#038048;stroke-width:1.0;"/><text fill="#000000" font-family="sans-serif" font-size="14" lengthAdjust="spacing" textLength="243" x="27" y="594.1826">removeCardFromHand(Card): void</text><ellipse cx="18" cy="607.1328" fill="#84BE84" rx="3" ry="3" style="stroke:#038048;stroke-width:1.0;"/><text fill="#000000" font-family="sans-serif" font-size="14" lengthAdjust="spacing" textLength="216" x="27" y="610.4795">hasCardInHand(Card): boolean</text><ellipse cx="18" cy="623.4297" fill="#84BE84" rx="3" ry="3" style="stroke:#038048;stroke-width:1.0;"/><text fill="#000000" font-family="sans-serif" font-size="14" lengthAdjust="spacing" textLength="218" x="27" y="626.7764">getCardIndexInHand(Card): int</text><ellipse cx="18" cy="639.7266" fill="#84BE84" rx="3" ry="3" style="stroke:#038048;stroke-width:1.0;"/><text fill="#000000" font-family="sans-serif" font-size="14" lengthAdjust="spacing" textLength="258" x="27" y="643.0732">getCardInHand(cardIndex: int): Card</text><ellipse cx="18" cy="656.0234" fill="#84BE84" rx="3" ry="3" style="stroke:#038048;stroke-width:1.0;"/><text fill="#000000" font-family="sans-serif" font-size="14" lengthAdjust="spacing" textLength="214" x="27" y="659.3701">getCardsInHand(): List&lt;Card&gt;</text></g><!--class Board--><g id="elem_Board"><rect codeLine="32" fill="#F1F1F1" height="162.0781" id="Board" rx="2.5" ry="2.5" style="stroke:#181818;stroke-width:0.5;" width="336" x="320" y="266.2969"/><ellipse cx="462.75" cy="282.2969" fill="#ADD1B2" rx="11" ry="11" style="stroke:#181818;stroke-width:1.0;"/><path d="M465.0938,277.9688 C464.1563,277.5313 463.5625,277.3906 462.6875,277.3906 C460.0625,277.3906 458.0625,279.4688 458.0625,282.1875 L458.0625,283.3125 C458.0625,285.8906 460.1719,287.7813 463.0625,287.7813 C464.2813,287.7813 465.4375,287.4844 466.1875,286.9375 C466.7656,286.5313 467.0938,286.0781 467.0938,285.6875 C467.0938,285.2344 466.7031,284.8438 466.2344,284.8438 C466.0156,284.8438 465.8125,284.9219 465.625,285.1094 C465.1719,285.5938 465.1719,285.5938 464.9844,285.6875 C464.5625,285.9531 463.875,286.0781 463.1094,286.0781 C461.0625,286.0781 459.7656,284.9844 459.7656,283.2813 L459.7656,282.1875 C459.7656,280.4063 461.0156,279.0938 462.75,279.0938 C463.3281,279.0938 463.9375,279.25 464.4063,279.5 C464.8906,279.7813 465.0625,280 465.1563,280.4063 C465.2188,280.8125 465.25,280.9375 465.3906,281.0625 C465.5313,281.2031 465.7656,281.3125 465.9844,281.3125 C466.25,281.3125 466.5156,281.1719 466.6875,280.9531 C466.7969,280.7969 466.8281,280.6094 466.8281,280.1875 L466.8281,278.7656 C466.8281,278.3281 466.8125,278.2031 466.7188,278.0469 C466.5625,277.7813 466.2813,277.6406 465.9844,277.6406 C465.6875,277.6406 465.4844,277.7344 465.2656,278.0469 L465.0938,277.9688 Z " fill="#000000"/><text fill="#000000" font-family="sans-serif" font-size="14" lengthAdjust="spacing" textLength="42" x="483.25" y="287.1436">Board</text><line style="stroke:#181818;stroke-width:0.5;" x1="321" x2="655" y1="298.2969" y2="298.2969"/><rect fill="none" height="6" style="stroke:#C82930;stroke-width:1.0;" width="6" x="328" y="308.9453"/><text fill="#000000" font-family="sans-serif" font-size="14" lengthAdjust="spacing" textLength="304" x="340" y="315.292">playersZones: Map&lt;playerID, BoardZone&gt;</text><line style="stroke:#181818;stroke-width:0.5;" x1="321" x2="655" y1="322.5938" y2="322.5938"/><ellipse cx="331" cy="336.2422" fill="#84BE84" rx="3" ry="3" style="stroke:#038048;stroke-width:1.0;"/><text fill="#000000" font-family="sans-serif" font-size="14" lengthAdjust="spacing" textLength="144" x="340" y="339.5889">Board(List&lt;Player&gt;)</text><ellipse cx="331" cy="352.5391" fill="#84BE84" rx="3" ry="3" style="stroke:#038048;stroke-width:1.0;"/><text fill="#000000" font-family="sans-serif" font-size="14" lengthAdjust="spacing" textLength="191" x="340" y="355.8857">addZone(BoardZone): void</text><ellipse cx="331" cy="368.8359" fill="#84BE84" rx="3" ry="3" style="stroke:#038048;stroke-width:1.0;"/><text fill="#000000" font-family="sans-serif" font-size="14" lengthAdjust="spacing" textLength="230" x="340" y="372.1826">removeZone(playerID: int): void</text><ellipse cx="331" cy="385.1328" fill="#84BE84" rx="3" ry="3" style="stroke:#038048;stroke-width:1.0;"/><text fill="#000000" font-family="sans-serif" font-size="14" lengthAdjust="spacing" textLength="199" x="340" y="388.4795">hasZone(playerID: int): void</text><ellipse cx="331" cy="401.4297" fill="#84BE84" rx="3" ry="3" style="stroke:#038048;stroke-width:1.0;"/><text fill="#000000" font-family="sans-serif" font-size="14" lengthAdjust="spacing" textLength="256" x="340" y="404.7764">getPlayerIDOfZone(BoardZone): int</text><ellipse cx="331" cy="417.7266" fill="#84BE84" rx="3" ry="3" style="stroke:#038048;stroke-width:1.0;"/><text fill="#000000" font-family="sans-serif" font-size="14" lengthAdjust="spacing" textLength="310" x="340" y="421.0732">getZoneOfPlayer(playerID: int): BoardZone</text></g><!--class BoardZone--><g id="elem_BoardZone"><rect codeLine="42" fill="#F1F1F1" height="145.7813" id="BoardZone" rx="2.5" ry="2.5" style="stroke:#181818;stroke-width:0.5;" width="324" x="326" y="504.2969"/><ellipse cx="444.25" cy="520.2969" fill="#ADD1B2" rx="11" ry="11" style="stroke:#181818;stroke-width:1.0;"/><path d="M446.5938,515.9688 C445.6563,515.5313 445.0625,515.3906 444.1875,515.3906 C441.5625,515.3906 439.5625,517.4688 439.5625,520.1875 L439.5625,521.3125 C439.5625,523.8906 441.6719,525.7813 444.5625,525.7813 C445.7813,525.7813 446.9375,525.4844 447.6875,524.9375 C448.2656,524.5313 448.5938,524.0781 448.5938,523.6875 C448.5938,523.2344 448.2031,522.8438 447.7344,522.8438 C447.5156,522.8438 447.3125,522.9219 447.125,523.1094 C446.6719,523.5938 446.6719,523.5938 446.4844,523.6875 C446.0625,523.9531 445.375,524.0781 444.6094,524.0781 C442.5625,524.0781 441.2656,522.9844 441.2656,521.2813 L441.2656,520.1875 C441.2656,518.4063 442.5156,517.0938 444.25,517.0938 C444.8281,517.0938 445.4375,517.25 445.9063,517.5 C446.3906,517.7813 446.5625,518 446.6563,518.4063 C446.7188,518.8125 446.75,518.9375 446.8906,519.0625 C447.0313,519.2031 447.2656,519.3125 447.4844,519.3125 C447.75,519.3125 448.0156,519.1719 448.1875,518.9531 C448.2969,518.7969 448.3281,518.6094 448.3281,518.1875 L448.3281,516.7656 C448.3281,516.3281 448.3125,516.2031 448.2188,516.0469 C448.0625,515.7813 447.7813,515.6406 447.4844,515.6406 C447.1875,515.6406 446.9844,515.7344 446.7656,516.0469 L446.5938,515.9688 Z " fill="#000000"/><text fill="#000000" font-family="sans-serif" font-size="14" lengthAdjust="spacing" textLength="79" x="464.75" y="525.1436">BoardZone</text><line style="stroke:#181818;stroke-width:0.5;" x1="327" x2="649" y1="536.2969" y2="536.2969"/><rect fill="none" height="6" style="stroke:#C82930;stroke-width:1.0;" width="6" x="334" y="546.9453"/><text fill="#000000" font-family="sans-serif" font-size="14" lengthAdjust="spacing" textLength="239" x="346" y="553.292">rows: Map&lt;rowIndex, BoardRow&gt;</text><line style="stroke:#181818;stroke-width:0.5;" x1="327" x2="649" y1="560.5938" y2="560.5938"/><ellipse cx="337" cy="574.2422" fill="#84BE84" rx="3" ry="3" style="stroke:#038048;stroke-width:1.0;"/><text fill="#000000" font-family="sans-serif" font-size="14" lengthAdjust="spacing" textLength="186" x="346" y="577.5889">BoardZone(numRows: int)</text><ellipse cx="337" cy="590.5391" fill="#84BE84" rx="3" ry="3" style="stroke:#038048;stroke-width:1.0;"/><text fill="#000000" font-family="sans-serif" font-size="14" lengthAdjust="spacing" textLength="177" x="346" y="593.8857">addRow(BoardRow): void</text><ellipse cx="337" cy="606.8359" fill="#84BE84" rx="3" ry="3" style="stroke:#038048;stroke-width:1.0;"/><text fill="#000000" font-family="sans-serif" font-size="14" lengthAdjust="spacing" textLength="206" x="346" y="610.1826">removeRow(BoardRow): void</text><ellipse cx="337" cy="623.1328" fill="#84BE84" rx="3" ry="3" style="stroke:#038048;stroke-width:1.0;"/><text fill="#000000" font-family="sans-serif" font-size="14" lengthAdjust="spacing" textLength="298" x="346" y="626.4795">hasRowWithIndex(rowIndex: int): boolean</text><ellipse cx="337" cy="639.4297" fill="#84BE84" rx="3" ry="3" style="stroke:#038048;stroke-width:1.0;"/><text fill="#000000" font-family="sans-serif" font-size="14" lengthAdjust="spacing" textLength="297" x="346" y="642.7764">getRowByIndex(rowIndex: int): BoardRow</text></g><!--class BoardRow--><g id="elem_BoardRow"><rect codeLine="51" fill="#F1F1F1" height="162.0781" id="BoardRow" rx="2.5" ry="2.5" style="stroke:#181818;stroke-width:0.5;" width="200" x="388" y="742.7969"/><ellipse cx="447.75" cy="758.7969" fill="#ADD1B2" rx="11" ry="11" style="stroke:#181818;stroke-width:1.0;"/><path d="M450.0938,754.4688 C449.1563,754.0313 448.5625,753.8906 447.6875,753.8906 C445.0625,753.8906 443.0625,755.9688 443.0625,758.6875 L443.0625,759.8125 C443.0625,762.3906 445.1719,764.2813 448.0625,764.2813 C449.2813,764.2813 450.4375,763.9844 451.1875,763.4375 C451.7656,763.0313 452.0938,762.5781 452.0938,762.1875 C452.0938,761.7344 451.7031,761.3438 451.2344,761.3438 C451.0156,761.3438 450.8125,761.4219 450.625,761.6094 C450.1719,762.0938 450.1719,762.0938 449.9844,762.1875 C449.5625,762.4531 448.875,762.5781 448.1094,762.5781 C446.0625,762.5781 444.7656,761.4844 444.7656,759.7813 L444.7656,758.6875 C444.7656,756.9063 446.0156,755.5938 447.75,755.5938 C448.3281,755.5938 448.9375,755.75 449.4063,756 C449.8906,756.2813 450.0625,756.5 450.1563,756.9063 C450.2188,757.3125 450.25,757.4375 450.3906,757.5625 C450.5313,757.7031 450.7656,757.8125 450.9844,757.8125 C451.25,757.8125 451.5156,757.6719 451.6875,757.4531 C451.7969,757.2969 451.8281,757.1094 451.8281,756.6875 L451.8281,755.2656 C451.8281,754.8281 451.8125,754.7031 451.7188,754.5469 C451.5625,754.2813 451.2813,754.1406 450.9844,754.1406 C450.6875,754.1406 450.4844,754.2344 450.2656,754.5469 L450.0938,754.4688 Z " fill="#000000"/><text fill="#000000" font-family="sans-serif" font-size="14" lengthAdjust="spacing" textLength="72" x="468.25" y="763.6436">BoardRow</text><line style="stroke:#181818;stroke-width:0.5;" x1="389" x2="587" y1="774.7969" y2="774.7969"/><rect fill="none" height="6" style="stroke:#C82930;stroke-width:1.0;" width="6" x="396" y="785.4453"/><text fill="#000000" font-family="sans-serif" font-size="14" lengthAdjust="spacing" textLength="128" x="408" y="791.792">cards: List&lt;Card&gt;</text><line style="stroke:#181818;stroke-width:0.5;" x1="389" x2="587" y1="799.0938" y2="799.0938"/><ellipse cx="399" cy="812.7422" fill="#84BE84" rx="3" ry="3" style="stroke:#038048;stroke-width:1.0;"/><text fill="#000000" font-family="sans-serif" font-size="14" lengthAdjust="spacing" textLength="126" x="408" y="816.0889">BoardRow(Player)</text><ellipse cx="399" cy="829.0391" fill="#84BE84" rx="3" ry="3" style="stroke:#038048;stroke-width:1.0;"/><text fill="#000000" font-family="sans-serif" font-size="14" lengthAdjust="spacing" textLength="141" x="408" y="832.3857">addCard(Card): void</text><ellipse cx="399" cy="845.3359" fill="#84BE84" rx="3" ry="3" style="stroke:#038048;stroke-width:1.0;"/><text fill="#000000" font-family="sans-serif" font-size="14" lengthAdjust="spacing" textLength="170" x="408" y="848.6826">removeCard(Card): void</text><ellipse cx="399" cy="861.6328" fill="#84BE84" rx="3" ry="3" style="stroke:#038048;stroke-width:1.0;"/><text fill="#000000" font-family="sans-serif" font-size="14" lengthAdjust="spacing" textLength="167" x="408" y="864.9795">hasCard(Card): boolean</text><ellipse cx="399" cy="877.9297" fill="#84BE84" rx="3" ry="3" style="stroke:#038048;stroke-width:1.0;"/><text fill="#000000" font-family="sans-serif" font-size="14" lengthAdjust="spacing" textLength="169" x="408" y="881.2764">getCardIndex(Card): int</text><ellipse cx="399" cy="894.2266" fill="#84BE84" rx="3" ry="3" style="stroke:#038048;stroke-width:1.0;"/><text fill="#000000" font-family="sans-serif" font-size="14" lengthAdjust="spacing" textLength="174" x="408" y="897.5732">getCard(index): boolean</text></g><!--class Dealer--><g id="elem_Dealer"><rect codeLine="73" fill="#F1F1F1" height="145.7813" id="Dealer" rx="2.5" ry="2.5" style="stroke:#181818;stroke-width:0.5;" width="257" x="753.5" y="274.2969"/><ellipse cx="854.25" cy="290.2969" fill="#ADD1B2" rx="11" ry="11" style="stroke:#181818;stroke-width:1.0;"/><path d="M856.5938,285.9688 C855.6563,285.5313 855.0625,285.3906 854.1875,285.3906 C851.5625,285.3906 849.5625,287.4688 849.5625,290.1875 L849.5625,291.3125 C849.5625,293.8906 851.6719,295.7813 854.5625,295.7813 C855.7813,295.7813 856.9375,295.4844 857.6875,294.9375 C858.2656,294.5313 858.5938,294.0781 858.5938,293.6875 C858.5938,293.2344 858.2031,292.8438 857.7344,292.8438 C857.5156,292.8438 857.3125,292.9219 857.125,293.1094 C856.6719,293.5938 856.6719,293.5938 856.4844,293.6875 C856.0625,293.9531 855.375,294.0781 854.6094,294.0781 C852.5625,294.0781 851.2656,292.9844 851.2656,291.2813 L851.2656,290.1875 C851.2656,288.4063 852.5156,287.0938 854.25,287.0938 C854.8281,287.0938 855.4375,287.25 855.9063,287.5 C856.3906,287.7813 856.5625,288 856.6563,288.4063 C856.7188,288.8125 856.75,288.9375 856.8906,289.0625 C857.0313,289.2031 857.2656,289.3125 857.4844,289.3125 C857.75,289.3125 858.0156,289.1719 858.1875,288.9531 C858.2969,288.7969 858.3281,288.6094 858.3281,288.1875 L858.3281,286.7656 C858.3281,286.3281 858.3125,286.2031 858.2188,286.0469 C858.0625,285.7813 857.7813,285.6406 857.4844,285.6406 C857.1875,285.6406 856.9844,285.7344 856.7656,286.0469 L856.5938,285.9688 Z " fill="#000000"/><text fill="#000000" font-family="sans-serif" font-size="14" lengthAdjust="spacing" textLength="47" x="874.75" y="295.1436">Dealer</text><line style="stroke:#181818;stroke-width:0.5;" x1="754.5" x2="1009.5" y1="306.2969" y2="306.2969"/><rect fill="none" height="6" style="stroke:#C82930;stroke-width:1.0;" width="6" x="761.5" y="316.9453"/><text fill="#000000" font-family="sans-serif" font-size="14" lengthAdjust="spacing" textLength="81" x="773.5" y="323.292">deck: Deck</text><rect fill="none" height="6" style="stroke:#C82930;stroke-width:1.0;" width="6" x="761.5" y="333.2422"/><text fill="#000000" font-family="sans-serif" font-size="14" lengthAdjust="spacing" textLength="197" x="773.5" y="339.5889">dealStrategy: DealStrategy</text><line style="stroke:#181818;stroke-width:0.5;" x1="754.5" x2="1009.5" y1="346.8906" y2="346.8906"/><ellipse cx="764.5" cy="360.5391" fill="#84BE84" rx="3" ry="3" style="stroke:#038048;stroke-width:1.0;"/><text fill="#000000" font-family="sans-serif" font-size="14" lengthAdjust="spacing" textLength="94" x="773.5" y="363.8857">Dealer(Deck)</text><ellipse cx="764.5" cy="376.8359" fill="#84BE84" rx="3" ry="3" style="stroke:#038048;stroke-width:1.0;"/><text fill="#000000" font-family="sans-serif" font-size="14" lengthAdjust="spacing" textLength="197" x="773.5" y="380.1826">Dealer(Deck, DealStrategy)</text><ellipse cx="764.5" cy="393.1328" fill="#84BE84" rx="3" ry="3" style="stroke:#038048;stroke-width:1.0;"/><text fill="#000000" font-family="sans-serif" font-size="14" lengthAdjust="spacing" textLength="200" x="773.5" y="396.4795">deal(round: int): List&lt;Card&gt;</text><ellipse cx="764.5" cy="409.4297" fill="#84BE84" rx="3" ry="3" style="stroke:#038048;stroke-width:1.0;"/><text fill="#000000" font-family="sans-serif" font-size="14" lengthAdjust="spacing" textLength="231" x="773.5" y="412.7764">deal(DealRequest[]): List&lt;Card&gt;</text></g><!--class DealStrategy--><g id="elem_DealStrategy"><rect codeLine="82" fill="#F1F1F1" height="80.5938" id="DealStrategy" rx="2.5" ry="2.5" style="stroke:#181818;stroke-width:0.5;" width="393" x="685.5" y="536.7969"/><ellipse cx="831.25" cy="552.7969" fill="#B4A7E5" rx="11" ry="11" style="stroke:#181818;stroke-width:1.0;"/><path d="M832.2031,549.5781 L833.9219,549.5781 C834.3125,549.5781 834.5,549.5469 834.625,549.4688 C834.8906,549.3125 835.0313,549.0313 835.0313,548.7344 C835.0313,548.4688 834.9219,548.2031 834.6875,548.0313 C834.5156,547.9219 834.375,547.8906 833.9219,547.8906 L828.7813,547.8906 C828.3438,547.8906 828.2188,547.9063 828.0625,548 C827.8125,548.1563 827.6563,548.4531 827.6563,548.7344 C827.6563,549.0156 827.7969,549.2656 828.0156,549.4375 C828.1719,549.5469 828.3594,549.5781 828.7813,549.5781 L830.5,549.5781 L830.5,556.0938 L828.7813,556.0938 C828.3438,556.0938 828.2188,556.1094 828.0625,556.2188 C827.8125,556.375 827.6563,556.6563 827.6563,556.9531 C827.6563,557.2031 827.7969,557.4688 828.0156,557.625 C828.1719,557.75 828.375,557.7969 828.7813,557.7969 L833.9219,557.7969 C834.6719,557.7969 835.0313,557.5156 835.0313,556.9531 C835.0313,556.6719 834.9219,556.4219 834.6875,556.25 C834.5156,556.125 834.375,556.0938 833.9219,556.0938 L832.2031,556.0938 L832.2031,549.5781 Z " fill="#000000"/><text fill="#000000" font-family="sans-serif" font-size="14" font-style="italic" lengthAdjust="spacing" textLength="93" x="851.75" y="557.6436">DealStrategy</text><line style="stroke:#181818;stroke-width:0.5;" x1="686.5" x2="1077.5" y1="568.7969" y2="568.7969"/><line style="stroke:#181818;stroke-width:0.5;" x1="686.5" x2="1077.5" y1="576.7969" y2="576.7969"/><ellipse cx="696.5" cy="590.4453" fill="#84BE84" rx="3" ry="3" style="stroke:#038048;stroke-width:1.0;"/><text fill="#000000" font-family="sans-serif" font-size="14" lengthAdjust="spacing" textLength="336" x="705.5" y="593.792">executeStrategy(Deck, round: int): List&lt;Card&gt;</text><ellipse cx="696.5" cy="606.7422" fill="#84BE84" rx="3" ry="3" style="stroke:#038048;stroke-width:1.0;"/><text fill="#000000" font-family="sans-serif" font-size="14" lengthAdjust="spacing" textLength="367" x="705.5" y="610.0889">executeStrategy(Deck, DealRequest[]): List&lt;Card&gt;</text></g><!--class BasicDealStrategy--><g id="elem_BasicDealStrategy"><rect codeLine="87" fill="#F1F1F1" height="96.8906" id="BasicDealStrategy" rx="2.5" ry="2.5" style="stroke:#181818;stroke-width:0.5;" width="314" x="725" y="775.2969"/><ellipse cx="811.75" cy="791.2969" fill="#ADD1B2" rx="11" ry="11" style="stroke:#181818;stroke-width:1.0;"/><path d="M814.0938,786.9688 C813.1563,786.5313 812.5625,786.3906 811.6875,786.3906 C809.0625,786.3906 807.0625,788.4688 807.0625,791.1875 L807.0625,792.3125 C807.0625,794.8906 809.1719,796.7813 812.0625,796.7813 C813.2813,796.7813 814.4375,796.4844 815.1875,795.9375 C815.7656,795.5313 816.0938,795.0781 816.0938,794.6875 C816.0938,794.2344 815.7031,793.8438 815.2344,793.8438 C815.0156,793.8438 814.8125,793.9219 814.625,794.1094 C814.1719,794.5938 814.1719,794.5938 813.9844,794.6875 C813.5625,794.9531 812.875,795.0781 812.1094,795.0781 C810.0625,795.0781 808.7656,793.9844 808.7656,792.2813 L808.7656,791.1875 C808.7656,789.4063 810.0156,788.0938 811.75,788.0938 C812.3281,788.0938 812.9375,788.25 813.4063,788.5 C813.8906,788.7813 814.0625,789 814.1563,789.4063 C814.2188,789.8125 814.25,789.9375 814.3906,790.0625 C814.5313,790.2031 814.7656,790.3125 814.9844,790.3125 C815.25,790.3125 815.5156,790.1719 815.6875,789.9531 C815.7969,789.7969 815.8281,789.6094 815.8281,789.1875 L815.8281,787.7656 C815.8281,787.3281 815.8125,787.2031 815.7188,787.0469 C815.5625,786.7813 815.2813,786.6406 814.9844,786.6406 C814.6875,786.6406 814.4844,786.7344 814.2656,787.0469 L814.0938,786.9688 Z " fill="#000000"/><text fill="#000000" font-family="sans-serif" font-size="14" lengthAdjust="spacing" textLength="132" x="832.25" y="796.1436">BasicDealStrategy</text><line style="stroke:#181818;stroke-width:0.5;" x1="726" x2="1038" y1="807.2969" y2="807.2969"/><rect fill="none" height="6" style="stroke:#C82930;stroke-width:1.0;" width="6" x="733" y="817.9453"/><text fill="#000000" font-family="sans-serif" font-size="14" lengthAdjust="spacing" textLength="288" x="745" y="824.292">rounds: Map&lt;round: int, DealRequest[]&gt;</text><line style="stroke:#181818;stroke-width:0.5;" x1="726" x2="1038" y1="831.5938" y2="831.5938"/><rect fill="#F24D5C" height="6" style="stroke:#C82930;stroke-width:1.0;" width="6" x="733" y="842.2422"/><text fill="#000000" font-family="sans-serif" font-size="14" lengthAdjust="spacing" textLength="142" x="745" y="848.5889">BasicDealStrategy()</text><ellipse cx="736" cy="861.5391" fill="#84BE84" rx="3" ry="3" style="stroke:#038048;stroke-width:1.0;"/><text fill="#000000" font-family="sans-serif" font-size="14" lengthAdjust="spacing" text-decoration="underline" textLength="198" x="745" y="864.8857">create(): BasicDealStrategy</text></g><!--class Deck--><g id="elem_Deck"><rect codeLine="93" fill="#F1F1F1" height="80.5938" id="Deck" rx="2.5" ry="2.5" style="stroke:#181818;stroke-width:0.5;" width="261" x="1113.5" y="536.7969"/><ellipse cx="1221.75" cy="552.7969" fill="#B4A7E5" rx="11" ry="11" style="stroke:#181818;stroke-width:1.0;"/><path d="M1222.7031,549.5781 L1224.4219,549.5781 C1224.8125,549.5781 1225,549.5469 1225.125,549.4688 C1225.3906,549.3125 1225.5313,549.0313 1225.5313,548.7344 C1225.5313,548.4688 1225.4219,548.2031 1225.1875,548.0313 C1225.0156,547.9219 1224.875,547.8906 1224.4219,547.8906 L1219.2813,547.8906 C1218.8438,547.8906 1218.7188,547.9063 1218.5625,548 C1218.3125,548.1563 1218.1563,548.4531 1218.1563,548.7344 C1218.1563,549.0156 1218.2969,549.2656 1218.5156,549.4375 C1218.6719,549.5469 1218.8594,549.5781 1219.2813,549.5781 L1221,549.5781 L1221,556.0938 L1219.2813,556.0938 C1218.8438,556.0938 1218.7188,556.1094 1218.5625,556.2188 C1218.3125,556.375 1218.1563,556.6563 1218.1563,556.9531 C1218.1563,557.2031 1218.2969,557.4688 1218.5156,557.625 C1218.6719,557.75 1218.875,557.7969 1219.2813,557.7969 L1224.4219,557.7969 C1225.1719,557.7969 1225.5313,557.5156 1225.5313,556.9531 C1225.5313,556.6719 1225.4219,556.4219 1225.1875,556.25 C1225.0156,556.125 1224.875,556.0938 1224.4219,556.0938 L1222.7031,556.0938 L1222.7031,549.5781 Z " fill="#000000"/><text fill="#000000" font-family="sans-serif" font-size="14" font-style="italic" lengthAdjust="spacing" textLength="36" x="1242.25" y="557.6436">Deck</text><line style="stroke:#181818;stroke-width:0.5;" x1="1114.5" x2="1373.5" y1="568.7969" y2="568.7969"/><line style="stroke:#181818;stroke-width:0.5;" x1="1114.5" x2="1373.5" y1="576.7969" y2="576.7969"/><ellipse cx="1124.5" cy="590.4453" fill="#84BE84" rx="3" ry="3" style="stroke:#038048;stroke-width:1.0;"/><text fill="#000000" font-family="sans-serif" font-size="14" lengthAdjust="spacing" textLength="141" x="1133.5" y="593.792">addCard(Card): void</text><ellipse cx="1124.5" cy="606.7422" fill="#84BE84" rx="3" ry="3" style="stroke:#038048;stroke-width:1.0;"/><text fill="#000000" font-family="sans-serif" font-size="14" lengthAdjust="spacing" textLength="235" x="1133.5" y="610.0889">deal(CardType, CardRarity): Card</text></g><!--class Card--><g id="elem_Card"><rect codeLine="106" fill="#F1F1F1" height="194.6719" id="Card" rx="2.5" ry="2.5" style="stroke:#181818;stroke-width:0.5;" width="241" x="1123.5" y="726.2969"/><ellipse cx="1222.75" cy="742.2969" fill="#A9DCDF" rx="11" ry="11" style="stroke:#181818;stroke-width:1.0;"/><path d="M1224.8281,744.1094 L1225.2188,745.0938 L1224.8281,745.0938 C1224.375,745.0938 1224.2656,745.1094 1224.1094,745.2188 C1223.8594,745.375 1223.7031,745.6563 1223.7031,745.9531 C1223.7031,746.2188 1223.8438,746.4688 1224.0625,746.625 C1224.2031,746.75 1224.4063,746.7969 1224.8281,746.7969 L1227.1875,746.7969 C1227.5469,746.7969 1227.7656,746.7656 1227.9063,746.6719 C1228.1563,746.5313 1228.3125,746.2344 1228.3125,745.9531 C1228.3125,745.6719 1228.1719,745.4219 1227.9531,745.2656 C1227.7813,745.125 1227.625,745.0938 1227.1563,745.0938 L1223.7656,736.8906 L1220.0938,736.8906 C1219.6406,736.8906 1219.5156,736.9063 1219.3594,737 C1219.1094,737.1719 1218.9531,737.4531 1218.9531,737.7344 C1218.9531,738.0156 1219.0938,738.2656 1219.3125,738.4375 C1219.4844,738.5469 1219.6563,738.5781 1220.0938,738.5781 L1221.1719,738.5781 L1218.5313,745.0938 C1218.1094,745.0938 1217.9531,745.1094 1217.7969,745.2188 C1217.5469,745.375 1217.3906,745.6563 1217.3906,745.9531 C1217.3906,746.5156 1217.7656,746.7969 1218.5156,746.7969 L1220.7813,746.7969 C1221.1406,746.7969 1221.3594,746.7656 1221.4844,746.6719 C1221.75,746.5313 1221.8906,746.2344 1221.8906,745.9531 C1221.8906,745.6719 1221.7656,745.4219 1221.5469,745.25 C1221.375,745.125 1221.2344,745.0938 1220.7813,745.0938 L1220.3906,745.0938 L1220.7813,744.1094 L1224.8281,744.1094 Z M1224.125,742.4063 L1221.4531,742.4063 L1222.7969,739.1406 L1224.125,742.4063 Z " fill="#000000"/><text fill="#000000" font-family="sans-serif" font-size="14" font-style="italic" lengthAdjust="spacing" textLength="34" x="1243.25" y="747.1436">Card</text><line style="stroke:#181818;stroke-width:0.5;" x1="1124.5" x2="1363.5" y1="758.2969" y2="758.2969"/><rect fill="none" height="6" style="stroke:#C82930;stroke-width:1.0;" width="6" x="1131.5" y="768.9453"/><text fill="#000000" font-family="sans-serif" font-size="14" lengthAdjust="spacing" textLength="93" x="1143.5" y="775.292">name: String</text><rect fill="none" height="6" style="stroke:#C82930;stroke-width:1.0;" width="6" x="1131.5" y="785.2422"/><text fill="#000000" font-family="sans-serif" font-size="14" lengthAdjust="spacing" textLength="135" x="1143.5" y="791.5889">description: String</text><rect fill="none" height="6" style="stroke:#C82930;stroke-width:1.0;" width="6" x="1131.5" y="801.5391"/><text fill="#000000" font-family="sans-serif" font-size="14" lengthAdjust="spacing" textLength="112" x="1143.5" y="807.8857">type: CardType</text><line style="stroke:#181818;stroke-width:0.5;" x1="1124.5" x2="1363.5" y1="815.1875" y2="815.1875"/><polygon fill="#FFFF44" points="1134.5,823.8359,1138.5,827.8359,1134.5,831.8359,1130.5,827.8359" style="stroke:#B38D22;stroke-width:1.0;"/><text fill="#000000" font-family="sans-serif" font-size="14" lengthAdjust="spacing" textLength="215" x="1143.5" y="832.1826">Card(name, description, type)</text><ellipse cx="1134.5" cy="845.1328" fill="#84BE84" rx="3" ry="3" style="stroke:#038048;stroke-width:1.0;"/><text fill="#000000" font-family="sans-serif" font-size="14" lengthAdjust="spacing" textLength="129" x="1143.5" y="848.4795">getName(): String</text><ellipse cx="1134.5" cy="861.4297" fill="#84BE84" rx="3" ry="3" style="stroke:#038048;stroke-width:1.0;"/><text fill="#000000" font-family="sans-serif" font-size="14" lengthAdjust="spacing" textLength="172" x="1143.5" y="864.7764">getDescription(): String</text><ellipse cx="1134.5" cy="877.7266" fill="#84BE84" rx="3" ry="3" style="stroke:#038048;stroke-width:1.0;"/><text fill="#000000" font-family="sans-serif" font-size="14" lengthAdjust="spacing" textLength="149" x="1143.5" y="881.0732">getType(): CardType</text><ellipse cx="1134.5" cy="894.0234" fill="#84BE84" rx="3" ry="3" style="stroke:#038048;stroke-width:1.0;"/><text fill="#000000" font-family="sans-serif" font-size="14" lengthAdjust="spacing" textLength="145" x="1143.5" y="897.3701">equals(obj): boolean</text><ellipse cx="1134.5" cy="910.3203" fill="#84BE84" rx="3" ry="3" style="stroke:#038048;stroke-width:1.0;"/><text fill="#000000" font-family="sans-serif" font-size="14" lengthAdjust="spacing" textLength="109" x="1143.5" y="913.667">hashCode(): int</text></g><!--class CardType--><g id="elem_CardType"><rect codeLine="118" fill="#F1F1F1" height="113.1875" id="CardType" rx="2.5" ry="2.5" style="stroke:#181818;stroke-width:0.5;" width="108" x="762" y="981.2969"/><ellipse cx="780.15" cy="997.2969" fill="#EB937F" rx="11" ry="11" style="stroke:#181818;stroke-width:1.0;"/><path d="M778.9469,998.1719 L780.4,998.1719 L780.4,998.2813 C780.4,998.6875 780.4313,998.8438 780.5094,999 C780.6656,999.25 780.9469,999.4063 781.2438,999.4063 C781.4938,999.4063 781.7594,999.2656 781.9156,999.0469 C782.0406,998.8906 782.0719,998.7344 782.0719,998.2813 L782.0719,996.3594 C782.0719,996.2031 782.0719,996.1563 782.0563,996 C781.9938,995.5313 781.6813,995.2188 781.2281,995.2188 C780.9781,995.2188 780.7125,995.3594 780.5406,995.5781 C780.4313,995.75 780.4,995.9063 780.4,996.3594 L780.4,996.4844 L778.9469,996.4844 L778.9469,994.0781 L782.9313,994.0781 L782.9313,994.9375 C782.9313,995.3438 782.9625,995.5156 783.0406,995.6719 C783.2125,995.9219 783.4938,996.0781 783.775,996.0781 C784.0406,996.0781 784.3063,995.9375 784.4781,995.7188 C784.5875,995.5469 784.6188,995.4063 784.6188,994.9375 L784.6188,992.3906 L776.9938,992.3906 C776.5563,992.3906 776.4313,992.4063 776.275,992.5 C776.025,992.6563 775.8688,992.9531 775.8688,993.2344 C775.8688,993.5156 776.0094,993.7656 776.2281,993.9375 C776.3844,994.0469 776.5719,994.0781 776.9938,994.0781 L777.2438,994.0781 L777.2438,1000.5938 L776.9938,1000.5938 C776.5875,1000.5938 776.4313,1000.6094 776.275,1000.7188 C776.025,1000.8906 775.8688,1001.1563 775.8688,1001.4531 C775.8688,1001.7188 776.0094,1001.9688 776.2281,1002.125 C776.3688,1002.25 776.6031,1002.2969 776.9938,1002.2969 L784.9938,1002.2969 L784.9938,999.7188 C784.9938,999.2813 784.9625,999.1406 784.8844,998.9844 C784.7125,998.7344 784.4313,998.5781 784.15,998.5781 C783.8844,998.5781 783.6188,998.6875 783.4469,998.9375 C783.3375,999.0938 783.3063,999.2344 783.3063,999.7188 L783.3063,1000.5938 L778.9469,1000.5938 L778.9469,998.1719 Z " fill="#000000"/><text fill="#000000" font-family="sans-serif" font-size="14" lengthAdjust="spacing" textLength="69" x="794.85" y="1002.1436">CardType</text><line style="stroke:#181818;stroke-width:0.5;" x1="763" x2="869" y1="1013.2969" y2="1013.2969"/><ellipse cx="773" cy="1026.9453" fill="none" rx="3" ry="3" style="stroke:#038048;stroke-width:1.0;"/><text fill="#000000" font-family="sans-serif" font-size="14" lengthAdjust="spacing" text-decoration="underline" textLength="82" x="782" y="1030.292">EQUIPMENT</text><ellipse cx="773" cy="1043.2422" fill="none" rx="3" ry="3" style="stroke:#038048;stroke-width:1.0;"/><text fill="#000000" font-family="sans-serif" font-size="14" lengthAdjust="spacing" text-decoration="underline" textLength="57" x="782" y="1046.5889">LEADER</text><ellipse cx="773" cy="1059.5391" fill="none" rx="3" ry="3" style="stroke:#038048;stroke-width:1.0;"/><text fill="#000000" font-family="sans-serif" font-size="14" lengthAdjust="spacing" text-decoration="underline" textLength="43" x="782" y="1062.8857">SPELL</text><ellipse cx="773" cy="1075.8359" fill="none" rx="3" ry="3" style="stroke:#038048;stroke-width:1.0;"/><text fill="#000000" font-family="sans-serif" font-size="14" lengthAdjust="spacing" text-decoration="underline" textLength="69" x="782" y="1079.1826">WARRIOR</text><line style="stroke:#181818;stroke-width:0.5;" x1="763" x2="869" y1="1086.4844" y2="1086.4844"/></g><!--class CardRarity--><g id="elem_CardRarity"><rect codeLine="125" fill="#F1F1F1" height="129.4844" id="CardRarity" rx="2.5" ry="2.5" style="stroke:#181818;stroke-width:0.5;" width="113" x="1528.5" y="1573.7969"/><ellipse cx="1545.75" cy="1589.7969" fill="#EB937F" rx="11" ry="11" style="stroke:#181818;stroke-width:1.0;"/><path d="M1544.5469,1590.6719 L1546,1590.6719 L1546,1590.7813 C1546,1591.1875 1546.0313,1591.3438 1546.1094,1591.5 C1546.2656,1591.75 1546.5469,1591.9063 1546.8438,1591.9063 C1547.0938,1591.9063 1547.3594,1591.7656 1547.5156,1591.5469 C1547.6406,1591.3906 1547.6719,1591.2344 1547.6719,1590.7813 L1547.6719,1588.8594 C1547.6719,1588.7031 1547.6719,1588.6563 1547.6563,1588.5 C1547.5938,1588.0313 1547.2813,1587.7188 1546.8281,1587.7188 C1546.5781,1587.7188 1546.3125,1587.8594 1546.1406,1588.0781 C1546.0313,1588.25 1546,1588.4063 1546,1588.8594 L1546,1588.9844 L1544.5469,1588.9844 L1544.5469,1586.5781 L1548.5313,1586.5781 L1548.5313,1587.4375 C1548.5313,1587.8438 1548.5625,1588.0156 1548.6406,1588.1719 C1548.8125,1588.4219 1549.0938,1588.5781 1549.375,1588.5781 C1549.6406,1588.5781 1549.9063,1588.4375 1550.0781,1588.2188 C1550.1875,1588.0469 1550.2188,1587.9063 1550.2188,1587.4375 L1550.2188,1584.8906 L1542.5938,1584.8906 C1542.1563,1584.8906 1542.0313,1584.9063 1541.875,1585 C1541.625,1585.1563 1541.4688,1585.4531 1541.4688,1585.7344 C1541.4688,1586.0156 1541.6094,1586.2656 1541.8281,1586.4375 C1541.9844,1586.5469 1542.1719,1586.5781 1542.5938,1586.5781 L1542.8438,1586.5781 L1542.8438,1593.0938 L1542.5938,1593.0938 C1542.1875,1593.0938 1542.0313,1593.1094 1541.875,1593.2188 C1541.625,1593.3906 1541.4688,1593.6563 1541.4688,1593.9531 C1541.4688,1594.2188 1541.6094,1594.4688 1541.8281,1594.625 C1541.9688,1594.75 1542.2031,1594.7969 1542.5938,1594.7969 L1550.5938,1594.7969 L1550.5938,1592.2188 C1550.5938,1591.7813 1550.5625,1591.6406 1550.4844,1591.4844 C1550.3125,1591.2344 1550.0313,1591.0781 1549.75,1591.0781 C1549.4844,1591.0781 1549.2188,1591.1875 1549.0469,1591.4375 C1548.9375,1591.5938 1548.9063,1591.7344 1548.9063,1592.2188 L1548.9063,1593.0938 L1544.5469,1593.0938 L1544.5469,1590.6719 Z " fill="#000000"/><text fill="#000000" font-family="sans-serif" font-size="14" lengthAdjust="spacing" textLength="76" x="1560.25" y="1594.6436">CardRarity</text><line style="stroke:#181818;stroke-width:0.5;" x1="1529.5" x2="1640.5" y1="1605.7969" y2="1605.7969"/><ellipse cx="1539.5" cy="1619.4453" fill="none" rx="3" ry="3" style="stroke:#038048;stroke-width:1.0;"/><text fill="#000000" font-family="sans-serif" font-size="14" lengthAdjust="spacing" text-decoration="underline" textLength="29" x="1548.5" y="1622.792">POP</text><ellipse cx="1539.5" cy="1635.7422" fill="none" rx="3" ry="3" style="stroke:#038048;stroke-width:1.0;"/><text fill="#000000" font-family="sans-serif" font-size="14" lengthAdjust="spacing" text-decoration="underline" textLength="66" x="1548.5" y="1639.0889">COMMON</text><ellipse cx="1539.5" cy="1652.0391" fill="none" rx="3" ry="3" style="stroke:#038048;stroke-width:1.0;"/><text fill="#000000" font-family="sans-serif" font-size="14" lengthAdjust="spacing" text-decoration="underline" textLength="39" x="1548.5" y="1655.3857">RARE</text><ellipse cx="1539.5" cy="1668.3359" fill="none" rx="3" ry="3" style="stroke:#038048;stroke-width:1.0;"/><text fill="#000000" font-family="sans-serif" font-size="14" lengthAdjust="spacing" text-decoration="underline" textLength="32" x="1548.5" y="1671.6826">EPIC</text><ellipse cx="1539.5" cy="1684.6328" fill="none" rx="3" ry="3" style="stroke:#038048;stroke-width:1.0;"/><text fill="#000000" font-family="sans-serif" font-size="14" lengthAdjust="spacing" text-decoration="underline" textLength="87" x="1548.5" y="1687.9795">LEGENDARY</text><line style="stroke:#181818;stroke-width:0.5;" x1="1529.5" x2="1640.5" y1="1695.2813" y2="1695.2813"/></g><!--class EquipmentCard--><g id="elem_EquipmentCard"><rect codeLine="133" fill="#F1F1F1" height="61.9063" id="EquipmentCard" rx="2.5" ry="2.5" style="stroke:#181818;stroke-width:0.5;" width="256" x="700" y="1442.2969"/><ellipse cx="715" cy="1465.25" fill="#ADD1B2" rx="11" ry="11" style="stroke:#181818;stroke-width:1.0;"/><path d="M717.3438,1460.9219 C716.4063,1460.4844 715.8125,1460.3438 714.9375,1460.3438 C712.3125,1460.3438 710.3125,1462.4219 710.3125,1465.1406 L710.3125,1466.2656 C710.3125,1468.8438 712.4219,1470.7344 715.3125,1470.7344 C716.5313,1470.7344 717.6875,1470.4375 718.4375,1469.8906 C719.0156,1469.4844 719.3438,1469.0313 719.3438,1468.6406 C719.3438,1468.1875 718.9531,1467.7969 718.4844,1467.7969 C718.2656,1467.7969 718.0625,1467.875 717.875,1468.0625 C717.4219,1468.5469 717.4219,1468.5469 717.2344,1468.6406 C716.8125,1468.9063 716.125,1469.0313 715.3594,1469.0313 C713.3125,1469.0313 712.0156,1467.9375 712.0156,1466.2344 L712.0156,1465.1406 C712.0156,1463.3594 713.2656,1462.0469 715,1462.0469 C715.5781,1462.0469 716.1875,1462.2031 716.6563,1462.4531 C717.1406,1462.7344 717.3125,1462.9531 717.4063,1463.3594 C717.4688,1463.7656 717.5,1463.8906 717.6406,1464.0156 C717.7813,1464.1563 718.0156,1464.2656 718.2344,1464.2656 C718.5,1464.2656 718.7656,1464.125 718.9375,1463.9063 C719.0469,1463.75 719.0781,1463.5625 719.0781,1463.1406 L719.0781,1461.7188 C719.0781,1461.2813 719.0625,1461.1563 718.9688,1461 C718.8125,1460.7344 718.5313,1460.5938 718.2344,1460.5938 C717.9375,1460.5938 717.7344,1460.6875 717.5156,1461 L717.3438,1460.9219 Z " fill="#000000"/><text fill="#000000" font-family="sans-serif" font-size="14" lengthAdjust="spacing" textLength="112" x="729" y="1470.0967">EquipmentCard</text><rect fill="#FFFFFF" height="43.9063" style="stroke:#181818;stroke-width:1.0;stroke-dasharray:2.0,2.0;" width="110" x="849" y="1439.2969"/><text fill="#000000" font-family="sans-serif" font-size="12" font-style="italic" lengthAdjust="spacing" textLength="72" x="868" y="1451.4355">Implements</text><text fill="#000000" font-family="sans-serif" font-size="12" font-style="italic" lengthAdjust="spacing" textLength="77" x="865.5" y="1465.4043">StatisticCard</text><text fill="#000000" font-family="sans-serif" font-size="12" font-style="italic" lengthAdjust="spacing" textLength="108" x="850" y="1479.373">SpecialAbilityCard</text><line style="stroke:#181818;stroke-width:0.5;" x1="701" x2="955" y1="1488.2031" y2="1488.2031"/><line style="stroke:#181818;stroke-width:0.5;" x1="701" x2="955" y1="1496.2031" y2="1496.2031"/></g><!--class LeaderCard--><g id="elem_LeaderCard"><rect codeLine="134" fill="#F1F1F1" height="48" id="LeaderCard" rx="2.5" ry="2.5" style="stroke:#181818;stroke-width:0.5;" width="195" x="991.5" y="1449.2969"/><ellipse cx="1006.5" cy="1465.2969" fill="#ADD1B2" rx="11" ry="11" style="stroke:#181818;stroke-width:1.0;"/><path d="M1008.8438,1460.9688 C1007.9063,1460.5313 1007.3125,1460.3906 1006.4375,1460.3906 C1003.8125,1460.3906 1001.8125,1462.4688 1001.8125,1465.1875 L1001.8125,1466.3125 C1001.8125,1468.8906 1003.9219,1470.7813 1006.8125,1470.7813 C1008.0313,1470.7813 1009.1875,1470.4844 1009.9375,1469.9375 C1010.5156,1469.5313 1010.8438,1469.0781 1010.8438,1468.6875 C1010.8438,1468.2344 1010.4531,1467.8438 1009.9844,1467.8438 C1009.7656,1467.8438 1009.5625,1467.9219 1009.375,1468.1094 C1008.9219,1468.5938 1008.9219,1468.5938 1008.7344,1468.6875 C1008.3125,1468.9531 1007.625,1469.0781 1006.8594,1469.0781 C1004.8125,1469.0781 1003.5156,1467.9844 1003.5156,1466.2813 L1003.5156,1465.1875 C1003.5156,1463.4063 1004.7656,1462.0938 1006.5,1462.0938 C1007.0781,1462.0938 1007.6875,1462.25 1008.1563,1462.5 C1008.6406,1462.7813 1008.8125,1463 1008.9063,1463.4063 C1008.9688,1463.8125 1009,1463.9375 1009.1406,1464.0625 C1009.2813,1464.2031 1009.5156,1464.3125 1009.7344,1464.3125 C1010,1464.3125 1010.2656,1464.1719 1010.4375,1463.9531 C1010.5469,1463.7969 1010.5781,1463.6094 1010.5781,1463.1875 L1010.5781,1461.7656 C1010.5781,1461.3281 1010.5625,1461.2031 1010.4688,1461.0469 C1010.3125,1460.7813 1010.0313,1460.6406 1009.7344,1460.6406 C1009.4375,1460.6406 1009.2344,1460.7344 1009.0156,1461.0469 L1008.8438,1460.9688 Z " fill="#000000"/><text fill="#000000" font-family="sans-serif" font-size="14" lengthAdjust="spacing" textLength="82" x="1020.5" y="1470.1436">LeaderCard</text><rect fill="#FFFFFF" height="29.9375" style="stroke:#181818;stroke-width:1.0;stroke-dasharray:2.0,2.0;" width="79" x="1110.5" y="1446.2969"/><text fill="#000000" font-family="sans-serif" font-size="12" font-style="italic" lengthAdjust="spacing" textLength="72" x="1114" y="1458.4355">Implements</text><text fill="#000000" font-family="sans-serif" font-size="12" font-style="italic" lengthAdjust="spacing" textLength="77" x="1111.5" y="1472.4043">StatisticCard</text><line style="stroke:#181818;stroke-width:0.5;" x1="992.5" x2="1185.5" y1="1481.2969" y2="1481.2969"/><line style="stroke:#181818;stroke-width:0.5;" x1="992.5" x2="1185.5" y1="1489.2969" y2="1489.2969"/></g><!--class SpellCard--><g id="elem_SpellCard"><rect codeLine="135" fill="#F1F1F1" height="48" id="SpellCard" rx="2.5" ry="2.5" style="stroke:#181818;stroke-width:0.5;" width="213" x="1221.5" y="1449.2969"/><ellipse cx="1236.5" cy="1465.2969" fill="#ADD1B2" rx="11" ry="11" style="stroke:#181818;stroke-width:1.0;"/><path d="M1238.8438,1460.9688 C1237.9063,1460.5313 1237.3125,1460.3906 1236.4375,1460.3906 C1233.8125,1460.3906 1231.8125,1462.4688 1231.8125,1465.1875 L1231.8125,1466.3125 C1231.8125,1468.8906 1233.9219,1470.7813 1236.8125,1470.7813 C1238.0313,1470.7813 1239.1875,1470.4844 1239.9375,1469.9375 C1240.5156,1469.5313 1240.8438,1469.0781 1240.8438,1468.6875 C1240.8438,1468.2344 1240.4531,1467.8438 1239.9844,1467.8438 C1239.7656,1467.8438 1239.5625,1467.9219 1239.375,1468.1094 C1238.9219,1468.5938 1238.9219,1468.5938 1238.7344,1468.6875 C1238.3125,1468.9531 1237.625,1469.0781 1236.8594,1469.0781 C1234.8125,1469.0781 1233.5156,1467.9844 1233.5156,1466.2813 L1233.5156,1465.1875 C1233.5156,1463.4063 1234.7656,1462.0938 1236.5,1462.0938 C1237.0781,1462.0938 1237.6875,1462.25 1238.1563,1462.5 C1238.6406,1462.7813 1238.8125,1463 1238.9063,1463.4063 C1238.9688,1463.8125 1239,1463.9375 1239.1406,1464.0625 C1239.2813,1464.2031 1239.5156,1464.3125 1239.7344,1464.3125 C1240,1464.3125 1240.2656,1464.1719 1240.4375,1463.9531 C1240.5469,1463.7969 1240.5781,1463.6094 1240.5781,1463.1875 L1240.5781,1461.7656 C1240.5781,1461.3281 1240.5625,1461.2031 1240.4688,1461.0469 C1240.3125,1460.7813 1240.0313,1460.6406 1239.7344,1460.6406 C1239.4375,1460.6406 1239.2344,1460.7344 1239.0156,1461.0469 L1238.8438,1460.9688 Z " fill="#000000"/><text fill="#000000" font-family="sans-serif" font-size="14" lengthAdjust="spacing" textLength="69" x="1250.5" y="1470.1436">SpellCard</text><rect fill="#FFFFFF" height="29.9375" style="stroke:#181818;stroke-width:1.0;stroke-dasharray:2.0,2.0;" width="110" x="1327.5" y="1446.2969"/><text fill="#000000" font-family="sans-serif" font-size="12" font-style="italic" lengthAdjust="spacing" textLength="72" x="1346.5" y="1458.4355">Implements</text><text fill="#000000" font-family="sans-serif" font-size="12" font-style="italic" lengthAdjust="spacing" textLength="108" x="1328.5" y="1472.4043">SpecialAbilityCard</text><line style="stroke:#181818;stroke-width:0.5;" x1="1222.5" x2="1433.5" y1="1481.2969" y2="1481.2969"/><line style="stroke:#181818;stroke-width:0.5;" x1="1222.5" x2="1433.5" y1="1489.2969" y2="1489.2969"/></g><!--class WarriorCard--><g id="elem_WarriorCard"><rect codeLine="136" fill="#F1F1F1" height="61.9063" id="WarriorCard" rx="2.5" ry="2.5" style="stroke:#181818;stroke-width:0.5;" width="230" x="1470" y="1442.2969"/><ellipse cx="1485" cy="1465.25" fill="#ADD1B2" rx="11" ry="11" style="stroke:#181818;stroke-width:1.0;"/><path d="M1487.3438,1460.9219 C1486.4063,1460.4844 1485.8125,1460.3438 1484.9375,1460.3438 C1482.3125,1460.3438 1480.3125,1462.4219 1480.3125,1465.1406 L1480.3125,1466.2656 C1480.3125,1468.8438 1482.4219,1470.7344 1485.3125,1470.7344 C1486.5313,1470.7344 1487.6875,1470.4375 1488.4375,1469.8906 C1489.0156,1469.4844 1489.3438,1469.0313 1489.3438,1468.6406 C1489.3438,1468.1875 1488.9531,1467.7969 1488.4844,1467.7969 C1488.2656,1467.7969 1488.0625,1467.875 1487.875,1468.0625 C1487.4219,1468.5469 1487.4219,1468.5469 1487.2344,1468.6406 C1486.8125,1468.9063 1486.125,1469.0313 1485.3594,1469.0313 C1483.3125,1469.0313 1482.0156,1467.9375 1482.0156,1466.2344 L1482.0156,1465.1406 C1482.0156,1463.3594 1483.2656,1462.0469 1485,1462.0469 C1485.5781,1462.0469 1486.1875,1462.2031 1486.6563,1462.4531 C1487.1406,1462.7344 1487.3125,1462.9531 1487.4063,1463.3594 C1487.4688,1463.7656 1487.5,1463.8906 1487.6406,1464.0156 C1487.7813,1464.1563 1488.0156,1464.2656 1488.2344,1464.2656 C1488.5,1464.2656 1488.7656,1464.125 1488.9375,1463.9063 C1489.0469,1463.75 1489.0781,1463.5625 1489.0781,1463.1406 L1489.0781,1461.7188 C1489.0781,1461.2813 1489.0625,1461.1563 1488.9688,1461 C1488.8125,1460.7344 1488.5313,1460.5938 1488.2344,1460.5938 C1487.9375,1460.5938 1487.7344,1460.6875 1487.5156,1461 L1487.3438,1460.9219 Z " fill="#000000"/><text fill="#000000" font-family="sans-serif" font-size="14" lengthAdjust="spacing" textLength="86" x="1499" y="1470.0967">WarriorCard</text><rect fill="#FFFFFF" height="43.9063" style="stroke:#181818;stroke-width:1.0;stroke-dasharray:2.0,2.0;" width="110" x="1593" y="1439.2969"/><text fill="#000000" font-family="sans-serif" font-size="12" font-style="italic" lengthAdjust="spacing" textLength="72" x="1612" y="1451.4355">Implements</text><text fill="#000000" font-family="sans-serif" font-size="12" font-style="italic" lengthAdjust="spacing" textLength="77" x="1609.5" y="1465.4043">StatisticCard</text><text fill="#000000" font-family="sans-serif" font-size="12" font-style="italic" lengthAdjust="spacing" textLength="108" x="1594" y="1479.373">SpecialAbilityCard</text><line style="stroke:#181818;stroke-width:0.5;" x1="1471" x2="1699" y1="1488.2031" y2="1488.2031"/><line style="stroke:#181818;stroke-width:0.5;" x1="1471" x2="1699" y1="1496.2031" y2="1496.2031"/></g><!--class SpecialAbilityCard--><g id="elem_SpecialAbilityCard"><rect codeLine="155" fill="#F1F1F1" height="80.5938" id="SpecialAbilityCard" rx="2.5" ry="2.5" style="stroke:#181818;stroke-width:0.5;" width="352" x="1368" y="997.2969"/><ellipse cx="1474.75" cy="1013.2969" fill="#B4A7E5" rx="11" ry="11" style="stroke:#181818;stroke-width:1.0;"/><path d="M1475.7031,1010.0781 L1477.4219,1010.0781 C1477.8125,1010.0781 1478,1010.0469 1478.125,1009.9688 C1478.3906,1009.8125 1478.5313,1009.5313 1478.5313,1009.2344 C1478.5313,1008.9688 1478.4219,1008.7031 1478.1875,1008.5313 C1478.0156,1008.4219 1477.875,1008.3906 1477.4219,1008.3906 L1472.2813,1008.3906 C1471.8438,1008.3906 1471.7188,1008.4063 1471.5625,1008.5 C1471.3125,1008.6563 1471.1563,1008.9531 1471.1563,1009.2344 C1471.1563,1009.5156 1471.2969,1009.7656 1471.5156,1009.9375 C1471.6719,1010.0469 1471.8594,1010.0781 1472.2813,1010.0781 L1474,1010.0781 L1474,1016.5938 L1472.2813,1016.5938 C1471.8438,1016.5938 1471.7188,1016.6094 1471.5625,1016.7188 C1471.3125,1016.875 1471.1563,1017.1563 1471.1563,1017.4531 C1471.1563,1017.7031 1471.2969,1017.9688 1471.5156,1018.125 C1471.6719,1018.25 1471.875,1018.2969 1472.2813,1018.2969 L1477.4219,1018.2969 C1478.1719,1018.2969 1478.5313,1018.0156 1478.5313,1017.4531 C1478.5313,1017.1719 1478.4219,1016.9219 1478.1875,1016.75 C1478.0156,1016.625 1477.875,1016.5938 1477.4219,1016.5938 L1475.7031,1016.5938 L1475.7031,1010.0781 Z " fill="#000000"/><text fill="#000000" font-family="sans-serif" font-size="14" font-style="italic" lengthAdjust="spacing" textLength="130" x="1495.25" y="1018.1436">SpecialAbilityCard</text><line style="stroke:#181818;stroke-width:0.5;" x1="1369" x2="1719" y1="1029.2969" y2="1029.2969"/><line style="stroke:#181818;stroke-width:0.5;" x1="1369" x2="1719" y1="1037.2969" y2="1037.2969"/><ellipse cx="1379" cy="1050.9453" fill="#84BE84" rx="3" ry="3" style="stroke:#038048;stroke-width:1.0;"/><text fill="#000000" font-family="sans-serif" font-size="14" lengthAdjust="spacing" textLength="326" x="1388" y="1054.292">getSpecialAbility(): Optional&lt;SpecialAbility&gt;</text><ellipse cx="1379" cy="1067.2422" fill="#84BE84" rx="3" ry="3" style="stroke:#038048;stroke-width:1.0;"/><text fill="#000000" font-family="sans-serif" font-size="14" lengthAdjust="spacing" textLength="200" x="1388" y="1070.5889">hasSpecialAbility(): boolean</text></g><!--class StatisticCard--><g id="elem_StatisticCard"><rect codeLine="187" fill="#F1F1F1" height="113.1875" id="StatisticCard" rx="2.5" ry="2.5" style="stroke:#181818;stroke-width:0.5;" width="373" x="1755.5" y="981.2969"/><ellipse cx="1892.75" cy="997.2969" fill="#B4A7E5" rx="11" ry="11" style="stroke:#181818;stroke-width:1.0;"/><path d="M1893.7031,994.0781 L1895.4219,994.0781 C1895.8125,994.0781 1896,994.0469 1896.125,993.9688 C1896.3906,993.8125 1896.5313,993.5313 1896.5313,993.2344 C1896.5313,992.9688 1896.4219,992.7031 1896.1875,992.5313 C1896.0156,992.4219 1895.875,992.3906 1895.4219,992.3906 L1890.2813,992.3906 C1889.8438,992.3906 1889.7188,992.4063 1889.5625,992.5 C1889.3125,992.6563 1889.1563,992.9531 1889.1563,993.2344 C1889.1563,993.5156 1889.2969,993.7656 1889.5156,993.9375 C1889.6719,994.0469 1889.8594,994.0781 1890.2813,994.0781 L1892,994.0781 L1892,1000.5938 L1890.2813,1000.5938 C1889.8438,1000.5938 1889.7188,1000.6094 1889.5625,1000.7188 C1889.3125,1000.875 1889.1563,1001.1563 1889.1563,1001.4531 C1889.1563,1001.7031 1889.2969,1001.9688 1889.5156,1002.125 C1889.6719,1002.25 1889.875,1002.2969 1890.2813,1002.2969 L1895.4219,1002.2969 C1896.1719,1002.2969 1896.5313,1002.0156 1896.5313,1001.4531 C1896.5313,1001.1719 1896.4219,1000.9219 1896.1875,1000.75 C1896.0156,1000.625 1895.875,1000.5938 1895.4219,1000.5938 L1893.7031,1000.5938 L1893.7031,994.0781 Z " fill="#000000"/><text fill="#000000" font-family="sans-serif" font-size="14" font-style="italic" lengthAdjust="spacing" textLength="90" x="1913.25" y="1002.1436">StatisticCard</text><line style="stroke:#181818;stroke-width:0.5;" x1="1756.5" x2="2127.5" y1="1013.2969" y2="1013.2969"/><line style="stroke:#181818;stroke-width:0.5;" x1="1756.5" x2="2127.5" y1="1021.2969" y2="1021.2969"/><ellipse cx="1766.5" cy="1034.9453" fill="#84BE84" rx="3" ry="3" style="stroke:#038048;stroke-width:1.0;"/><text fill="#000000" font-family="sans-serif" font-size="14" lengthAdjust="spacing" textLength="347" x="1775.5" y="1038.292">getStatistic(StatisticType): Optional&lt;Statistic&gt;</text><ellipse cx="1766.5" cy="1051.2422" fill="#84BE84" rx="3" ry="3" style="stroke:#038048;stroke-width:1.0;"/><text fill="#000000" font-family="sans-serif" font-size="14" lengthAdjust="spacing" textLength="259" x="1775.5" y="1054.5889">hasStatistic(StatisticType): boolean</text><ellipse cx="1766.5" cy="1067.5391" fill="#84BE84" rx="3" ry="3" style="stroke:#038048;stroke-width:1.0;"/><text fill="#000000" font-family="sans-serif" font-size="14" lengthAdjust="spacing" textLength="262" x="1775.5" y="1070.8857">removeStatistic(StatisticType): void</text><ellipse cx="1766.5" cy="1083.8359" fill="#84BE84" rx="3" ry="3" style="stroke:#038048;stroke-width:1.0;"/><text fill="#000000" font-family="sans-serif" font-size="14" lengthAdjust="spacing" textLength="194" x="1775.5" y="1087.1826">setStatistic(Statistic): void</text></g><!--class SpecialAbility--><g id="elem_SpecialAbility"><rect codeLine="151" fill="#F1F1F1" height="64.2969" id="SpecialAbility" rx="2.5" ry="2.5" style="stroke:#181818;stroke-width:0.5;" width="128" x="1480" y="1235.7969"/><ellipse cx="1495" cy="1251.7969" fill="#B4A7E5" rx="11" ry="11" style="stroke:#181818;stroke-width:1.0;"/><path d="M1495.9531,1248.5781 L1497.6719,1248.5781 C1498.0625,1248.5781 1498.25,1248.5469 1498.375,1248.4688 C1498.6406,1248.3125 1498.7813,1248.0313 1498.7813,1247.7344 C1498.7813,1247.4688 1498.6719,1247.2031 1498.4375,1247.0313 C1498.2656,1246.9219 1498.125,1246.8906 1497.6719,1246.8906 L1492.5313,1246.8906 C1492.0938,1246.8906 1491.9688,1246.9063 1491.8125,1247 C1491.5625,1247.1563 1491.4063,1247.4531 1491.4063,1247.7344 C1491.4063,1248.0156 1491.5469,1248.2656 1491.7656,1248.4375 C1491.9219,1248.5469 1492.1094,1248.5781 1492.5313,1248.5781 L1494.25,1248.5781 L1494.25,1255.0938 L1492.5313,1255.0938 C1492.0938,1255.0938 1491.9688,1255.1094 1491.8125,1255.2188 C1491.5625,1255.375 1491.4063,1255.6563 1491.4063,1255.9531 C1491.4063,1256.2031 1491.5469,1256.4688 1491.7656,1256.625 C1491.9219,1256.75 1492.125,1256.7969 1492.5313,1256.7969 L1497.6719,1256.7969 C1498.4219,1256.7969 1498.7813,1256.5156 1498.7813,1255.9531 C1498.7813,1255.6719 1498.6719,1255.4219 1498.4375,1255.25 C1498.2656,1255.125 1498.125,1255.0938 1497.6719,1255.0938 L1495.9531,1255.0938 L1495.9531,1248.5781 Z " fill="#000000"/><text fill="#000000" font-family="sans-serif" font-size="14" font-style="italic" lengthAdjust="spacing" textLength="96" x="1509" y="1256.6436">SpecialAbility</text><line style="stroke:#181818;stroke-width:0.5;" x1="1481" x2="1607" y1="1267.7969" y2="1267.7969"/><line style="stroke:#181818;stroke-width:0.5;" x1="1481" x2="1607" y1="1275.7969" y2="1275.7969"/><ellipse cx="1491" cy="1289.4453" fill="#84BE84" rx="3" ry="3" style="stroke:#038048;stroke-width:1.0;"/><text fill="#000000" font-family="sans-serif" font-size="14" lengthAdjust="spacing" textLength="73" x="1500" y="1292.792">use(): void</text></g><!--class Statistic--><g id="elem_Statistic"><rect codeLine="164" fill="#F1F1F1" height="227.2656" id="Statistic" rx="2.5" ry="2.5" style="stroke:#181818;stroke-width:0.5;" width="268" x="1808" y="1154.2969"/><ellipse cx="1907.25" cy="1170.2969" fill="#ADD1B2" rx="11" ry="11" style="stroke:#181818;stroke-width:1.0;"/><path d="M1909.5938,1165.9688 C1908.6563,1165.5313 1908.0625,1165.3906 1907.1875,1165.3906 C1904.5625,1165.3906 1902.5625,1167.4688 1902.5625,1170.1875 L1902.5625,1171.3125 C1902.5625,1173.8906 1904.6719,1175.7813 1907.5625,1175.7813 C1908.7813,1175.7813 1909.9375,1175.4844 1910.6875,1174.9375 C1911.2656,1174.5313 1911.5938,1174.0781 1911.5938,1173.6875 C1911.5938,1173.2344 1911.2031,1172.8438 1910.7344,1172.8438 C1910.5156,1172.8438 1910.3125,1172.9219 1910.125,1173.1094 C1909.6719,1173.5938 1909.6719,1173.5938 1909.4844,1173.6875 C1909.0625,1173.9531 1908.375,1174.0781 1907.6094,1174.0781 C1905.5625,1174.0781 1904.2656,1172.9844 1904.2656,1171.2813 L1904.2656,1170.1875 C1904.2656,1168.4063 1905.5156,1167.0938 1907.25,1167.0938 C1907.8281,1167.0938 1908.4375,1167.25 1908.9063,1167.5 C1909.3906,1167.7813 1909.5625,1168 1909.6563,1168.4063 C1909.7188,1168.8125 1909.75,1168.9375 1909.8906,1169.0625 C1910.0313,1169.2031 1910.2656,1169.3125 1910.4844,1169.3125 C1910.75,1169.3125 1911.0156,1169.1719 1911.1875,1168.9531 C1911.2969,1168.7969 1911.3281,1168.6094 1911.3281,1168.1875 L1911.3281,1166.7656 C1911.3281,1166.3281 1911.3125,1166.2031 1911.2188,1166.0469 C1911.0625,1165.7813 1910.7813,1165.6406 1910.4844,1165.6406 C1910.1875,1165.6406 1909.9844,1165.7344 1909.7656,1166.0469 L1909.5938,1165.9688 Z " fill="#000000"/><text fill="#000000" font-family="sans-serif" font-size="14" lengthAdjust="spacing" textLength="61" x="1927.75" y="1175.1436">Statistic</text><line style="stroke:#181818;stroke-width:0.5;" x1="1809" x2="2075" y1="1186.2969" y2="1186.2969"/><rect fill="none" height="6" style="stroke:#C82930;stroke-width:1.0;" width="6" x="1816" y="1196.9453"/><text fill="#000000" font-family="sans-serif" font-size="14" lengthAdjust="spacing" textLength="140" x="1828" y="1203.292">type: StatisticType</text><rect fill="none" height="6" style="stroke:#C82930;stroke-width:1.0;" width="6" x="1816" y="1213.2422"/><text fill="#000000" font-family="sans-serif" font-size="14" lengthAdjust="spacing" textLength="97" x="1828" y="1219.5889">value: Double</text><line style="stroke:#181818;stroke-width:0.5;" x1="1809" x2="2075" y1="1226.8906" y2="1226.8906"/><ellipse cx="1819" cy="1240.5391" fill="#84BE84" rx="3" ry="3" style="stroke:#038048;stroke-width:1.0;"/><text fill="#000000" font-family="sans-serif" font-size="14" lengthAdjust="spacing" textLength="227" x="1828" y="1243.8857">Statistic(StatisticType, Double)</text><ellipse cx="1819" cy="1256.8359" fill="#84BE84" rx="3" ry="3" style="stroke:#038048;stroke-width:1.0;"/><text fill="#000000" font-family="sans-serif" font-size="14" lengthAdjust="spacing" textLength="140" x="1828" y="1260.1826">isInfinite(): boolean</text><ellipse cx="1819" cy="1273.1328" fill="#84BE84" rx="3" ry="3" style="stroke:#038048;stroke-width:1.0;"/><text fill="#000000" font-family="sans-serif" font-size="14" lengthAdjust="spacing" textLength="177" x="1828" y="1276.4795">getType(): StatisticType</text><ellipse cx="1819" cy="1289.4297" fill="#84BE84" rx="3" ry="3" style="stroke:#038048;stroke-width:1.0;"/><text fill="#000000" font-family="sans-serif" font-size="14" lengthAdjust="spacing" textLength="221" x="1828" y="1292.7764">isType(StatisticType): boolean</text><ellipse cx="1819" cy="1305.7266" fill="#84BE84" rx="3" ry="3" style="stroke:#038048;stroke-width:1.0;"/><text fill="#000000" font-family="sans-serif" font-size="14" lengthAdjust="spacing" textLength="242" x="1828" y="1309.0732">isSameTypeAs(Statistic): boolean</text><ellipse cx="1819" cy="1322.0234" fill="#84BE84" rx="3" ry="3" style="stroke:#038048;stroke-width:1.0;"/><text fill="#000000" font-family="sans-serif" font-size="14" lengthAdjust="spacing" textLength="134" x="1828" y="1325.3701">getValue(): Double</text><ellipse cx="1819" cy="1338.3203" fill="#84BE84" rx="3" ry="3" style="stroke:#038048;stroke-width:1.0;"/><text fill="#000000" font-family="sans-serif" font-size="14" lengthAdjust="spacing" textLength="162" x="1828" y="1341.667">setValue(Double): void</text><ellipse cx="1819" cy="1354.6172" fill="#84BE84" rx="3" ry="3" style="stroke:#038048;stroke-width:1.0;"/><text fill="#000000" font-family="sans-serif" font-size="14" lengthAdjust="spacing" textLength="171" x="1828" y="1357.9639">equals(Object): boolean</text><ellipse cx="1819" cy="1370.9141" fill="#84BE84" rx="3" ry="3" style="stroke:#038048;stroke-width:1.0;"/><text fill="#000000" font-family="sans-serif" font-size="14" lengthAdjust="spacing" textLength="109" x="1828" y="1374.2607">hashCode(): int</text></g><!--class BasicStatisticTypes--><g id="elem_BasicStatisticTypes"><rect codeLine="178" fill="#F1F1F1" height="145.7813" id="BasicStatisticTypes" rx="2.5" ry="2.5" style="stroke:#181818;stroke-width:0.5;" width="173" x="1855.5" y="1565.2969"/><ellipse cx="1870.5" cy="1581.2969" fill="#EB937F" rx="11" ry="11" style="stroke:#181818;stroke-width:1.0;"/><path d="M1869.2969,1582.1719 L1870.75,1582.1719 L1870.75,1582.2813 C1870.75,1582.6875 1870.7813,1582.8438 1870.8594,1583 C1871.0156,1583.25 1871.2969,1583.4063 1871.5938,1583.4063 C1871.8438,1583.4063 1872.1094,1583.2656 1872.2656,1583.0469 C1872.3906,1582.8906 1872.4219,1582.7344 1872.4219,1582.2813 L1872.4219,1580.3594 C1872.4219,1580.2031 1872.4219,1580.1563 1872.4063,1580 C1872.3438,1579.5313 1872.0313,1579.2188 1871.5781,1579.2188 C1871.3281,1579.2188 1871.0625,1579.3594 1870.8906,1579.5781 C1870.7813,1579.75 1870.75,1579.9063 1870.75,1580.3594 L1870.75,1580.4844 L1869.2969,1580.4844 L1869.2969,1578.0781 L1873.2813,1578.0781 L1873.2813,1578.9375 C1873.2813,1579.3438 1873.3125,1579.5156 1873.3906,1579.6719 C1873.5625,1579.9219 1873.8438,1580.0781 1874.125,1580.0781 C1874.3906,1580.0781 1874.6563,1579.9375 1874.8281,1579.7188 C1874.9375,1579.5469 1874.9688,1579.4063 1874.9688,1578.9375 L1874.9688,1576.3906 L1867.3438,1576.3906 C1866.9063,1576.3906 1866.7813,1576.4063 1866.625,1576.5 C1866.375,1576.6563 1866.2188,1576.9531 1866.2188,1577.2344 C1866.2188,1577.5156 1866.3594,1577.7656 1866.5781,1577.9375 C1866.7344,1578.0469 1866.9219,1578.0781 1867.3438,1578.0781 L1867.5938,1578.0781 L1867.5938,1584.5938 L1867.3438,1584.5938 C1866.9375,1584.5938 1866.7813,1584.6094 1866.625,1584.7188 C1866.375,1584.8906 1866.2188,1585.1563 1866.2188,1585.4531 C1866.2188,1585.7188 1866.3594,1585.9688 1866.5781,1586.125 C1866.7188,1586.25 1866.9531,1586.2969 1867.3438,1586.2969 L1875.3438,1586.2969 L1875.3438,1583.7188 C1875.3438,1583.2813 1875.3125,1583.1406 1875.2344,1582.9844 C1875.0625,1582.7344 1874.7813,1582.5781 1874.5,1582.5781 C1874.2344,1582.5781 1873.9688,1582.6875 1873.7969,1582.9375 C1873.6875,1583.0938 1873.6563,1583.2344 1873.6563,1583.7188 L1873.6563,1584.5938 L1869.2969,1584.5938 L1869.2969,1582.1719 Z " fill="#000000"/><text fill="#000000" font-family="sans-serif" font-size="14" lengthAdjust="spacing" textLength="141" x="1884.5" y="1586.1436">BasicStatisticTypes</text><line style="stroke:#181818;stroke-width:0.5;" x1="1856.5" x2="2027.5" y1="1597.2969" y2="1597.2969"/><ellipse cx="1866.5" cy="1610.9453" fill="none" rx="3" ry="3" style="stroke:#038048;stroke-width:1.0;"/><text fill="#000000" font-family="sans-serif" font-size="14" lengthAdjust="spacing" text-decoration="underline" textLength="56" x="1875.5" y="1614.292">HEALTH</text><ellipse cx="1866.5" cy="1627.2422" fill="none" rx="3" ry="3" style="stroke:#038048;stroke-width:1.0;"/><text fill="#000000" font-family="sans-serif" font-size="14" lengthAdjust="spacing" text-decoration="underline" textLength="117" x="1875.5" y="1630.5889">HEAL_PER_TURN</text><ellipse cx="1866.5" cy="1643.5391" fill="none" rx="3" ry="3" style="stroke:#038048;stroke-width:1.0;"/><text fill="#000000" font-family="sans-serif" font-size="14" lengthAdjust="spacing" text-decoration="underline" textLength="107" x="1875.5" y="1646.8857">MAGIC_ARMOR</text><ellipse cx="1866.5" cy="1659.8359" fill="none" rx="3" ry="3" style="stroke:#038048;stroke-width:1.0;"/><text fill="#000000" font-family="sans-serif" font-size="14" lengthAdjust="spacing" text-decoration="underline" textLength="117" x="1875.5" y="1663.1826">MAGIC_DAMAGE</text><ellipse cx="1866.5" cy="1676.1328" fill="none" rx="3" ry="3" style="stroke:#038048;stroke-width:1.0;"/><text fill="#000000" font-family="sans-serif" font-size="14" lengthAdjust="spacing" text-decoration="underline" textLength="129" x="1875.5" y="1679.4795">PHYSICAL_ARMOR</text><ellipse cx="1866.5" cy="1692.4297" fill="none" rx="3" ry="3" style="stroke:#038048;stroke-width:1.0;"/><text fill="#000000" font-family="sans-serif" font-size="14" lengthAdjust="spacing" text-decoration="underline" textLength="139" x="1875.5" y="1695.7764">PHYSICAL_DAMAGE</text><line style="stroke:#181818;stroke-width:0.5;" x1="1856.5" x2="2027.5" y1="1703.0781" y2="1703.0781"/></g><!--class StatisticType--><g id="elem_StatisticType"><rect codeLine="194" fill="#F1F1F1" height="64.2969" id="StatisticType" rx="2.5" ry="2.5" style="stroke:#181818;stroke-width:0.5;" width="153" x="1865.5" y="1441.2969"/><ellipse cx="1894" cy="1457.2969" fill="#B4A7E5" rx="11" ry="11" style="stroke:#181818;stroke-width:1.0;"/><path d="M1894.9531,1454.0781 L1896.6719,1454.0781 C1897.0625,1454.0781 1897.25,1454.0469 1897.375,1453.9688 C1897.6406,1453.8125 1897.7813,1453.5313 1897.7813,1453.2344 C1897.7813,1452.9688 1897.6719,1452.7031 1897.4375,1452.5313 C1897.2656,1452.4219 1897.125,1452.3906 1896.6719,1452.3906 L1891.5313,1452.3906 C1891.0938,1452.3906 1890.9688,1452.4063 1890.8125,1452.5 C1890.5625,1452.6563 1890.4063,1452.9531 1890.4063,1453.2344 C1890.4063,1453.5156 1890.5469,1453.7656 1890.7656,1453.9375 C1890.9219,1454.0469 1891.1094,1454.0781 1891.5313,1454.0781 L1893.25,1454.0781 L1893.25,1460.5938 L1891.5313,1460.5938 C1891.0938,1460.5938 1890.9688,1460.6094 1890.8125,1460.7188 C1890.5625,1460.875 1890.4063,1461.1563 1890.4063,1461.4531 C1890.4063,1461.7031 1890.5469,1461.9688 1890.7656,1462.125 C1890.9219,1462.25 1891.125,1462.2969 1891.5313,1462.2969 L1896.6719,1462.2969 C1897.4219,1462.2969 1897.7813,1462.0156 1897.7813,1461.4531 C1897.7813,1461.1719 1897.6719,1460.9219 1897.4375,1460.75 C1897.2656,1460.625 1897.125,1460.5938 1896.6719,1460.5938 L1894.9531,1460.5938 L1894.9531,1454.0781 Z " fill="#000000"/><text fill="#000000" font-family="sans-serif" font-size="14" font-style="italic" lengthAdjust="spacing" textLength="91" x="1911" y="1462.1436">StatisticType</text><line style="stroke:#181818;stroke-width:0.5;" x1="1866.5" x2="2017.5" y1="1473.2969" y2="1473.2969"/><line style="stroke:#181818;stroke-width:0.5;" x1="1866.5" x2="2017.5" y1="1481.2969" y2="1481.2969"/><ellipse cx="1876.5" cy="1494.9453" fill="#84BE84" rx="3" ry="3" style="stroke:#038048;stroke-width:1.0;"/><text fill="#000000" font-family="sans-serif" font-size="14" lengthAdjust="spacing" textLength="127" x="1885.5" y="1498.292">getValue(): String</text></g><!--reverse link Game to Player--><g id="link_Game_Player"><path codeLine="62" d="M360.839,212.9069 C326.678,236.1769 290.369,260.9069 258.413,282.6669 " fill="none" id="Game-backto-Player" style="stroke:#181818;stroke-width:1.0;"/><polygon fill="#181818" points="371.846,205.4069,364.6353,205.4792,361.9286,212.1631,369.1394,212.0908,371.846,205.4069" style="stroke:#181818;stroke-width:1.0;"/></g><!--link Game to Board--><g id="link_Game_Board"><path codeLine="63" d="M488,206.3469 C488,224.0869 488,242.9569 488,260.9069 " fill="none" id="Game-to-Board" style="stroke:#181818;stroke-width:1.0;"/><polygon fill="#181818" points="488,265.9369,492,256.9369,488,260.9369,484,256.9369,488,265.9369" style="stroke:#181818;stroke-width:1.0;"/></g><!--link Game to Dealer--><g id="link_Game_Dealer"><path codeLine="64" d="M604.082,191.1169 C649.491,216.4669 701.843,245.6969 748.78,271.9069 " fill="none" id="Game-to-Dealer" style="stroke:#181818;stroke-width:1.0;"/><polygon fill="#181818" points="753.305,274.4369,747.3939,266.5591,748.9385,272.001,743.4966,273.5456,753.305,274.4369" style="stroke:#181818;stroke-width:1.0;"/></g><!--reverse link Player to PlayerHand--><g id="link_Player_PlayerHand"><path codeLine="66" d="M159.629,424.8369 C158.206,445.1069 156.659,467.1569 155.197,487.9969 " fill="none" id="Player-backto-PlayerHand" style="stroke:#181818;stroke-width:1.0;"/><polygon fill="#181818" points="160.543,411.8069,156.131,417.5107,159.6991,423.7772,164.1111,418.0733,160.543,411.8069" style="stroke:#181818;stroke-width:1.0;"/></g><!--reverse link Board to BoardZone--><g id="link_Board_BoardZone"><path codeLine="68" d="M488,441.5369 C488,462.3869 488,484.1869 488,504.0369 " fill="none" id="Board-backto-BoardZone" style="stroke:#181818;stroke-width:1.0;"/><polygon fill="#181818" points="488,428.3569,484,434.3569,488,440.3569,492,434.3569,488,428.3569" style="stroke:#181818;stroke-width:1.0;"/></g><!--reverse link BoardZone to BoardRow--><g id="link_BoardZone_BoardRow"><path codeLine="69" d="M488,663.5269 C488,689.2369 488,717.3569 488,742.7169 " fill="none" id="BoardZone-backto-BoardRow" style="stroke:#181818;stroke-width:1.0;"/><polygon fill="#181818" points="488,650.3369,484,656.3369,488,662.3369,492,656.3369,488,650.3369" style="stroke:#181818;stroke-width:1.0;"/></g><!--reverse link Dealer to Deck--><g id="link_Dealer_Deck"><path codeLine="98" d="M1007.76,427.5069 C1066.38,464.4269 1133.56,506.7369 1181.25,536.7769 " fill="none" id="Dealer-backto-Deck" style="stroke:#181818;stroke-width:1.0;"/><polygon fill="#181818" points="996.539,420.4369,999.4865,427.0181,1006.6951,426.8286,1003.7476,420.2474,996.539,420.4369" style="stroke:#181818;stroke-width:1.0;"/></g><!--reverse link Dealer to DealStrategy--><g id="link_Dealer_DealStrategy"><path codeLine="99" d="M882,433.7669 C882,469.1369 882,508.4269 882,536.7769 " fill="none" id="Dealer-backto-DealStrategy" style="stroke:#181818;stroke-width:1.0;"/><polygon fill="#181818" points="882,420.4369,878,426.4369,882,432.4369,886,426.4369,882,420.4369" style="stroke:#181818;stroke-width:1.0;"/></g><!--reverse link DealStrategy to BasicDealStrategy--><g id="link_DealStrategy_BasicDealStrategy"><path codeLine="100" d="M882,637.8869 C882,679.9869 882,735.6759 882,774.9009 " fill="none" id="DealStrategy-backto-BasicDealStrategy" style="stroke:#181818;stroke-width:1.0;stroke-dasharray:7.0,7.0;"/><polygon fill="none" points="875,637.8469,882,617.8469,889,637.8469,875,637.8469" style="stroke:#181818;stroke-width:1.0;"/></g><!--reverse link Deck to Card--><g id="link_Deck_Card"><path codeLine="102" d="M1244,630.8569 C1244,658.6169 1244,693.5869 1244,726.0359 " fill="none" id="Deck-backto-Card" style="stroke:#181818;stroke-width:1.0;"/><polygon fill="none" points="1244,617.8469,1240,623.8469,1244,629.8469,1248,623.8469,1244,617.8469" style="stroke:#181818;stroke-width:1.0;"/></g><!--reverse link Card to LeaderCard--><g id="link_Card_LeaderCard"><path codeLine="138" d="M1216.2,940.9229 C1178.55,1098.2189 1113.82,1368.6209 1094.56,1449.0699 " fill="none" id="Card-backto-LeaderCard" style="stroke:#181818;stroke-width:1.0;"/><polygon fill="none" points="1209.41,939.2049,1220.88,921.3839,1223.03,942.4649,1209.41,939.2049" style="stroke:#181818;stroke-width:1.0;"/></g><!--reverse link Card to SpellCard--><g id="link_Card_SpellCard"><path codeLine="139" d="M1242.55,941.4779 C1243.66,1055.3089 1252.16,1232.5599 1289,1381.2969 C1294.95,1405.3219 1306.55,1431.1119 1315.55,1449.0799 " fill="none" id="Card-backto-SpellCard" style="stroke:#181818;stroke-width:1.0;"/><polygon fill="none" points="1235.55,941.3739,1242.42,921.3309,1249.55,941.2869,1235.55,941.3739" style="stroke:#181818;stroke-width:1.0;"/></g><!--reverse link Card to EquipmentCard--><g id="link_Card_EquipmentCard"><path codeLine="140" d="M1170.93,938.5269 C1072.87,1091.1529 904.429,1353.3359 847.472,1441.9899 " fill="none" id="Card-backto-EquipmentCard" style="stroke:#181818;stroke-width:1.0;"/><polygon fill="none" points="1165.25,934.4269,1181.95,921.3839,1177.02,941.9949,1165.25,934.4269" style="stroke:#181818;stroke-width:1.0;"/></g><!--reverse link Card to WarriorCard--><g id="link_Card_WarriorCard"><path codeLine="141" d="M1269.35,941.2199 C1299.78,1060.8689 1359.91,1247.9969 1462,1381.2969 C1480.66,1405.6539 1507.51,1426.5559 1531.38,1442.1629 " fill="none" id="Card-backto-WarriorCard" style="stroke:#181818;stroke-width:1.0;"/><polygon fill="none" points="1262.49,942.6179,1264.46,921.5199,1276.08,939.2419,1262.49,942.6179" style="stroke:#181818;stroke-width:1.0;"/></g><!--reverse link Card to CardType--><g id="link_Card_CardType"><path codeLine="142" d="M1111.59,895.1239 C1093.08,904.2619 1074.17,913.2349 1056,921.2969 C986.958,951.9249 963.968,946.3669 897,981.2969 C888.083,985.9479 878.973,991.4039 870.234,997.0449 " fill="none" id="Card-backto-CardType" style="stroke:#181818;stroke-width:1.0;"/><polygon fill="#181818" points="1123.37,889.2629,1116.2158,888.359,1112.6298,894.6152,1119.784,895.5191,1123.37,889.2629" style="stroke:#181818;stroke-width:1.0;"/></g><!--reverse link WarriorCard to CardRarity--><g id="link_WarriorCard_CardRarity"><path codeLine="144" d="M1585,1517.6569 C1585,1534.8549 1585,1554.9769 1585,1573.7599 " fill="none" id="WarriorCard-backto-CardRarity" style="stroke:#181818;stroke-width:1.0;"/><polygon fill="#181818" points="1585,1504.5739,1581,1510.5739,1585,1516.5739,1589,1510.5739,1585,1504.5739" style="stroke:#181818;stroke-width:1.0;"/></g><!--link Card to SpecialAbilityCard--><g id="link_Card_SpecialAbilityCard"><path codeLine="146" d="M1364.72,910.1089 C1407.38,940.2539 1453.33,972.7219 1488.02,997.2409 " fill="none" id="Card-SpecialAbilityCard" style="stroke:#181818;stroke-width:1.0;stroke-dasharray:7.0,7.0;"/></g><!--link Card to StatisticCard--><g id="link_Card_StatisticCard"><path codeLine="147" d="M1364.79,861.4829 C1473.45,894.4879 1634.69,943.4579 1759.15,981.2599 " fill="none" id="Card-StatisticCard" style="stroke:#181818;stroke-width:1.0;stroke-dasharray:7.0,7.0;"/></g><!--reverse link SpecialAbilityCard to SpecialAbility--><g id="link_SpecialAbilityCard_SpecialAbility"><path codeLine="160" d="M1544,1091.7329 C1544,1136.3189 1544,1198.5839 1544,1235.5879 " fill="none" id="SpecialAbilityCard-backto-SpecialAbility" style="stroke:#181818;stroke-width:1.0;"/><polygon fill="none" points="1544,1078.5119,1540,1084.5119,1544,1090.5119,1548,1084.5119,1544,1078.5119" style="stroke:#181818;stroke-width:1.0;"/></g><!--reverse link StatisticCard to Statistic--><g id="link_StatisticCard_Statistic"><path codeLine="198" d="M1942,1107.6759 C1942,1122.3459 1942,1138.2049 1942,1154.0319 " fill="none" id="StatisticCard-backto-Statistic" style="stroke:#181818;stroke-width:1.0;"/><polygon fill="none" points="1942,1094.5719,1938,1100.5719,1942,1106.5719,1946,1100.5719,1942,1094.5719" style="stroke:#181818;stroke-width:1.0;"/></g><!--reverse link Statistic to StatisticType--><g id="link_Statistic_StatisticType"><path codeLine="199" d="M1942,1394.7379 C1942,1411.7749 1942,1427.8509 1942,1440.9019 " fill="none" id="Statistic-backto-StatisticType" style="stroke:#181818;stroke-width:1.0;"/><polygon fill="#181818" points="1942,1381.5569,1938,1387.5569,1942,1393.5569,1946,1387.5569,1942,1381.5569" style="stroke:#181818;stroke-width:1.0;"/></g><!--reverse link StatisticType to BasicStatisticTypes--><g id="link_StatisticType_BasicStatisticTypes"><path codeLine="200" d="M1942,1525.7339 C1942,1538.2489 1942,1551.8629 1942,1565.1429 " fill="none" id="StatisticType-backto-BasicStatisticTypes" style="stroke:#181818;stroke-width:1.0;stroke-dasharray:7.0,7.0;"/><polygon fill="none" points="1935,1525.3399,1942,1505.3399,1949,1525.3399,1935,1525.3399" style="stroke:#181818;stroke-width:1.0;"/></g><!--SRC=[dLPjR-8u4FwUNn7fFbmei3y0SPMoa6kHe721lMhlHPL9tDRRaB29wIxgzh_lpDXEx12gw_45FC_CU5uV8uNCk3yjTapaViehyP1xtYHZLULViHttNpn_M1Q7F1tv8fTmI3dBU3dof_GDWdt6ZhoiHlvSL7AyKgTBp- -ZVQ3K1YxO0xDAib86lP7_N8XKkudnefPiSoZpG1aQuDL4gCGKeu00vqN-03zpk7VahsKfwBWLfNoSCibH8M4P_WHnmigqckNN35EZw2OWkMoGZmLyEr3hNZIbkyd0TT9lL0B8ji_I595DGHByMMVPB_ckUEOe-xqiTXqAZwn2WGhMODkYo3ZB0NxWKi4f_-xgKCSQdA34g18CIeWrMheas8IkpAaebBHk-rz5pY7t1TkFbMGs7IWjHB0IT0Yi_b_gWg12KAkswq6eSMbYRGho5Wofh3Iol3-vfIuAdfVtIlF4LMtHoXr5UYc-wRpX5nLKvnqNt-gqwVByi8j96JshrE4S6ELsujqOf0pdMo4VwQx0N6hYTSO1D3yUk_MCvrPQ83axoaR1R64ppcS7kNk0tnxTpg4D14AM3OJj4J5T38Tw3zLvEBnKgJH7JL6Ufed60YVSyzGiexHfTjFZMex5ydxzxJqVkjdKLqL1rKrvyeJCcJnf8WMI0ZPwE2ewDIT8Nna5gDfpZmD75K5q53GStMkrZs2qYVdN0w_at_-UxFOibxoyPmbtV6F8VVwT9mV9ZKo7SFwsRltpr_lM8B9A9Eq0rEDJRvgvjkKIQVl4d8Zt1TuPAP9NFoavI97NJXJR9KYUAFNk8QTo4fSVztn0x1cpKiYZeL9mfbkE8qJDTixMlKwounyVFdJ4vb4y1PYIz_TEeZ8AjnNuIwIlAZqn9DvwAk7zJqgnbwB8BQc4H5LkcBBd_q9LGTE1RraCV5JigTszmRU_rpX1sRJHRKFeEEZPb_IXjIohWcBxnM4Ce9B7IP6IDZ85L3i2WgqjgNDrqwC_FirMY-XcOmldKJYDObkoNaNpkIsu3UDujemTxwhBhl_LScKV9yl5OdbZI-8mZfo0LhE96yjLT3CDuy_D6aHV3sA_updnttYsssSSJzK_-HgDAh1318vxdWYMXLkHGM1gcrvUjPSvPoalttPXgOElB3lLVkk6MrQMeYZ_PvGUpU3unn0-Lh2Ek0xAaJhrSH0h8YM_q5j38-LPS8sefkfeOFzEesqWEwztxw7hsEOR5w7vEbGyiFxidjCrQumRv29elQHDOzdOXIxL4ftgMozinpM5weUJmtjBO0fe9hqM41SfcgbbYWQ6pomxW7XQ7BOPqaAD1uxcG6iW_GZu3tilSg7OtlcpONYcTGkO4EA87LjHhO7HK1nMZLhR_PyOBFglmwsCK8TNFoEQtfRRBpoH_udXw6bm8gnSChgEmldckYsvMqNntUPJxD3I8hoQJUx2UB6CJyNJ4BuTrbfTVrxF9k3hnA96j94xhVR6r8FQtK1dO0rWPlMiILCrzT_plAOkUzKPGFUksHvCz7M7zUk5o-9aINjI3tepuHUsdAREzT-y_cwBVm80]--></g></svg>